# Blender 4.5.2 LTS
# www.blender.org
mtllib network_with_elevation.mtl
o network.002
v 913.221130 -84.507263 194.804291
v 1320.912842 -178.990967 348.794220
v 1340.946533 -178.995941 227.036942
v 1375.789307 -179.101593 280.437439
v 1354.726440 -179.093887 326.962860
v 1369.057007 -179.122925 314.295563
v 1249.485840 -179.115631 252.989761
v 1256.119141 -179.115540 249.919434
v 1333.834717 -179.024704 307.732788
v 1214.012451 -179.122620 408.478638
v 1184.287109 -179.082108 415.284302
v 1146.055298 -179.080048 414.603973
v 1108.766602 -178.956909 397.145142
v 1075.578613 -178.871750 365.040100
v 1048.003784 -179.054291 328.460815
v 1040.587891 -178.987335 307.792114
v 1035.620361 -179.228516 286.024475
v 1038.412109 -179.144485 274.505493
v 1042.792969 -179.028931 265.556274
v 1115.683105 -176.097107 227.072403
v 1204.349121 -166.610245 150.641617
v 1220.691528 -163.484314 114.825684
v 1231.343018 -158.998611 59.624512
v 1245.691895 -157.355789 38.128555
v 1259.626221 -156.273346 26.863037
v 1318.257812 -150.591537 8.384430
v 1466.710449 -138.964920 9.319702
v 1500.687012 -139.082413 18.930328
v 1524.820557 -139.063629 35.816238
v 1573.222656 -139.162781 77.199478
v 1611.049438 -139.293457 87.802170
v 1760.185303 -139.073898 68.611191
v 1799.611572 -139.200348 74.538406
v 1826.901978 -139.036682 88.822845
v 1842.005859 -139.144470 109.420639
v 1847.033447 -139.333405 134.660889
v 1841.048950 -139.315201 151.502808
v 1826.615112 -139.268738 161.678482
v 1802.065308 -139.224976 168.595596
v 1775.059326 -139.205383 173.053635
v 1332.444946 -178.846054 266.337799
v 1693.530151 -139.180695 175.746918
v 1660.937988 -139.270309 169.101944
v 1628.415161 -139.139893 154.458801
v 1593.793701 -139.085022 126.698898
v 1562.136719 -139.091644 92.370438
v 1488.566162 -139.070801 28.460083
v 1461.729736 -138.985672 21.344269
v 1277.434570 -154.811020 26.426193
v 1262.577148 -156.251923 32.955933
v 1249.837891 -157.324249 42.732788
v 1226.197876 -163.448349 117.940201
v 1209.993896 -166.722809 154.780731
v 1129.270264 -175.676697 224.295135
v 1072.801758 -178.572815 259.878174
v 1060.902344 -178.888855 272.853699
v 1058.319092 -179.072723 282.716034
v 1061.759888 -178.860229 295.306946
v 1067.764404 -178.804688 307.858459
v 1076.520996 -178.899902 315.745819
v 1090.493408 -178.758514 319.423340
v 1141.591309 -178.821594 313.305603
v 1163.768799 -178.914749 304.932434
v 1007.818604 -178.810394 289.920868
v 982.737061 -178.836273 271.023193
v 794.231140 -189.143463 202.581680
v 768.331848 -189.101196 201.704727
v 514.583191 -188.769989 278.414734
v 488.669922 -188.548950 306.412598
v 487.114594 -188.650146 317.430145
v 489.501160 -188.814484 324.788025
v 494.491638 -188.972260 332.004395
v 503.633789 -189.081635 334.972290
v 527.267761 -189.423996 333.579193
v 653.198914 -197.866135 299.463440
v 690.279907 -198.911072 289.924774
v 713.182617 -198.959381 289.476868
v 724.149780 -198.918869 296.728119
v 728.732544 -198.850281 310.540070
v 728.731995 -199.121521 331.193298
v 752.931885 -198.966858 411.643860
v 742.951721 -198.848846 407.999878
v 735.339294 -198.882935 402.094513
v 729.666931 -198.941986 395.092590
v 725.217773 -199.127869 366.093750
v 765.241577 -199.175995 412.128296
v 818.012390 -198.960175 414.494385
v 834.948975 -199.031464 432.672424
v 846.951782 -199.295517 453.206635
v 852.769104 -199.579620 467.365051
v 855.833069 -199.444397 476.748932
v 782.557739 -199.100739 407.913300
v 846.223877 -198.890594 501.652710
v 792.201050 -198.978912 540.352600
v 808.677368 -198.989670 531.596008
v 700.127747 -198.961792 437.711121
v 704.565918 -198.969238 461.685638
v 712.363281 -199.060120 481.671753
v 711.625549 -199.008057 309.342590
v 708.989258 -198.980774 302.338074
v 703.400513 -199.018463 300.272522
v 694.852722 -199.048187 300.293396
v 567.973511 -191.191956 334.150574
v 525.087463 -189.197510 342.856049
v 501.720703 -189.108978 344.124786
v 486.731934 -188.975433 338.801208
v 478.258026 -188.841995 329.963745
v 473.663879 -188.703644 318.817963
v 473.062256 -188.660019 307.961365
v 478.479706 -188.845642 285.192780
v 497.417297 -188.926117 268.700562
v 771.650146 -189.047760 187.698822
v 792.643738 -189.048630 190.618378
v 895.179749 -181.938797 232.191284
v 952.647583 -179.004028 253.253860
v 982.930481 -178.788818 260.743408
v 1015.276733 -179.068542 264.900146
v 451.183960 -188.823257 285.308167
v 435.938568 -188.778748 279.089050
v 418.496063 -188.649292 270.170258
v 401.235474 -189.069458 253.415222
v 392.769897 -189.200134 231.653732
v 391.309082 -189.820312 204.686111
v 392.393738 -193.489258 178.658783
v 386.228821 -197.400574 129.659088
v 350.346313 -198.592377 63.989014
v 245.507202 -204.001526 32.840897
v 99.455139 -218.223297 11.540146
v 17.207886 -225.615707 11.031509
v -24.209473 -229.507339 7.113647
v -92.262512 -235.084259 -1.041992
v -128.720337 -238.000275 -5.165802
v -159.809692 -241.699463 -14.295837
v -181.530273 -242.941025 -34.804321
v -189.998901 -244.274506 -52.806808
v -192.694336 -245.880142 -84.377167
v -179.956055 -248.533813 -114.912445
v -154.586670 -249.070984 -135.570526
v -123.022827 -251.586914 -149.959778
v -88.063049 -254.844238 -155.798370
v -56.500244 -257.505737 -156.944977
v 30.124023 -265.778748 -133.888458
v 88.723206 -268.587158 -131.514343
v 116.571533 -268.988098 -131.808777
v 136.125977 -268.988098 -134.116516
v 144.253174 -269.024017 -138.587769
v 146.211182 -268.892242 -145.661133
v 143.470215 -268.909485 -151.206543
v 132.074707 -268.875916 -158.411316
v -27.607239 -268.876526 -212.556274
v -116.585693 -268.789978 -229.289856
v -175.495605 -268.930115 -241.161316
v -181.270020 -268.900909 -248.713928
v -184.083862 -268.812195 -257.480835
v -169.202637 -268.870483 -289.923370
v -177.851318 -268.849609 -282.189514
v -181.863892 -268.840088 -274.947784
v -156.433838 -268.975739 -298.950623
v -112.047729 -268.861694 -292.163208
v -127.372314 -268.823212 -302.958649
v -135.719482 -268.902435 -304.531586
v -145.035400 -268.966980 -303.722931
v -16.369629 -268.426514 -221.247162
v 25.061035 -268.727264 -204.094910
v 107.692505 -268.856903 -178.223267
v 154.228882 -268.865051 -155.676483
v 157.748047 -268.848358 -146.514648
v 156.596680 -268.968628 -136.362366
v 148.748962 -269.032288 -127.330170
v 132.609070 -268.935913 -122.889618
v 89.156616 -268.609467 -121.204834
v 26.881165 -265.949921 -124.182495
v -57.628967 -257.623627 -149.679077
v -87.578613 -254.987366 -148.825012
v -118.998779 -251.891968 -143.903961
v -148.575928 -249.111710 -130.613342
v -171.634521 -248.466156 -111.851929
v -183.250244 -245.977753 -84.805115
v -181.303467 -244.386963 -55.784637
v -174.368652 -243.423828 -40.251587
v -156.657593 -241.662384 -23.591370
v -28.675659 -230.195679 -3.044159
v 16.979858 -225.845947 2.065079
v 101.259583 -217.860504 3.554886
v 247.938232 -204.090210 23.999649
v 338.516296 -198.171448 44.794357
v 356.860474 -198.478485 57.364685
v 373.892334 -198.051163 79.006302
v 393.905518 -197.724869 125.580063
v 400.291016 -196.020859 151.009949
v 401.138794 -189.217224 230.221375
v 409.157440 -188.945007 248.250549
v 423.645081 -188.641190 259.535522
v 440.280914 -188.843628 267.693054
v 455.163940 -188.985245 271.917908
v 474.470947 -188.959503 271.116150
v 1288.568115 -179.103134 353.453308
v 1275.808350 -179.310776 376.278381
v 1204.702637 -178.904633 280.813171
v 1211.091797 -178.841599 277.897125
v 1288.668945 -179.093506 335.799683
v 1253.952637 -179.029831 282.272644
v 383.724976 -188.488663 296.266174
v 229.711182 -189.062347 257.570251
v 55.153809 -189.054657 175.800720
v -378.392334 -188.703461 4.265503
v -388.352051 -188.625061 2.038742
v -397.625122 -188.776962 3.453003
v -404.890137 -188.569550 7.890152
v -409.959106 -188.349426 15.053879
v -410.306885 -188.417801 25.023102
v -406.540527 -188.390106 37.683197
v -390.165894 -188.410645 56.831696
v -300.294922 -189.198517 104.867722
v -261.569092 -190.846405 117.016136
v -228.850586 -193.667404 130.050507
v -207.557373 -196.148285 150.158905
v -133.084351 -209.092743 271.500366
v -129.816895 -211.671936 292.455200
v -130.309570 -213.059753 310.022614
v -136.441895 -214.416428 326.664886
v -216.198730 -224.209442 409.239319
v -253.941528 -228.303680 449.461853
v -275.237915 -229.029739 469.778442
v -298.806396 -229.083923 487.669037
v -399.214355 -235.785156 518.330933
v -546.987061 -250.417969 548.882812
v -793.414917 -268.675720 562.490112
v -1033.115234 -269.056152 604.609009
v -983.208252 -269.062805 683.115234
v -997.239624 -269.045227 680.869995
v -1008.437866 -269.581451 567.125122
v -1017.729736 -269.404144 573.191650
v -835.224243 -269.074738 572.257874
v -896.977661 -269.035065 621.225220
v -949.119385 -268.965027 558.093872
v -546.461426 -250.485535 542.848389
v -336.490479 -229.745270 497.117859
v -304.323364 -229.058563 481.818298
v -220.206665 -221.733215 402.626251
v -142.700684 -214.064713 322.316437
v -137.308838 -213.136810 308.126068
v -138.282471 -209.725677 273.313171
v -196.965454 -198.293915 169.315735
v -230.733521 -193.751831 133.879730
v -263.166016 -191.006897 121.007660
v -393.156738 -188.268158 59.566833
v -411.184326 -188.397430 39.019653
v -415.823730 -188.393585 23.359711
v -414.902100 -188.402908 11.378143
v -410.086792 -188.457458 4.076538
v -401.955566 -188.653534 -1.000244
v -392.974854 -188.672729 -5.942047
v -376.790771 -188.616974 -3.177826
v -365.413940 -188.650665 3.103928
v -328.168091 -188.781097 32.911850
v -181.716064 -188.873413 105.338486
v 55.084961 -188.998901 167.489929
v 137.978333 -189.102051 197.122101
v 237.720947 -189.108185 248.265381
v 340.377563 -189.021973 284.415710
v -450.911377 -188.694397 -46.705841
v -538.923584 -188.870605 -119.014160
v -555.627563 -189.082001 -128.744507
v -567.461914 -189.005173 -131.501526
v -575.554810 -188.761078 -130.654022
v -580.396118 -188.623703 -127.879608
v -583.099243 -188.576813 -122.956665
v -582.539673 -188.773972 -115.788147
v -567.835327 -190.453125 -94.306885
v -549.332764 -192.855927 -73.759155
v -521.340332 -197.561707 -37.575104
v -474.325684 -205.111145 24.526031
v -404.467896 -217.158752 138.979202
v -381.839600 -220.891968 169.281036
v -286.021240 -228.687607 256.444244
v -276.671143 -228.921112 268.965637
v -272.141113 -228.927460 283.993195
v -275.163086 -228.866852 298.997375
v -283.293701 -228.886566 307.800781
v -297.196045 -228.978058 311.198425
v -318.792114 -229.019867 308.957581
v -346.890869 -229.223450 298.066711
v -452.028076 -238.266541 210.697372
v -496.834717 -238.863129 190.965561
v -565.090332 -238.835907 170.502121
v -732.586914 -238.611664 142.967484
v -814.735352 -238.901260 143.187775
v -885.896484 -239.174255 165.798309
v -1011.770752 -239.383057 155.362762
v -969.133057 -238.916870 209.208649
v -980.215088 -238.840515 206.666321
v -1008.193237 -239.057480 173.874161
v -985.303223 -238.883728 118.137161
v -994.795410 -239.116821 123.898987
v -971.801147 -238.833801 114.882484
v -935.860107 -239.046722 203.266693
v -953.538696 -239.050827 208.969681
v -784.997070 -239.023682 121.726852
v -657.764160 -238.882706 138.928192
v -474.355469 -238.394028 186.086044
v -345.533691 -229.317673 283.998871
v -319.090576 -229.026184 295.705872
v -301.317139 -228.999603 296.833679
v -291.897217 -228.967697 292.234558
v -288.564209 -228.954407 283.183411
v -290.748047 -228.895782 272.031525
v -297.863647 -228.707520 259.929688
v -377.577271 -222.733063 182.592957
v -418.709595 -216.063751 126.221756
v -484.612793 -204.289337 20.240265
v -563.653320 -191.787689 -80.426758
v -588.554443 -188.617310 -114.971680
v -588.726807 -188.402740 -123.901306
v -584.954956 -188.522583 -131.536591
v -578.504883 -188.664093 -135.116669
v -568.209473 -189.004364 -136.462555
v -554.657471 -188.900299 -133.745728
v -536.141113 -188.817612 -123.343140
v -452.909912 -188.618896 -55.721085
v 1334.651367 -179.038635 318.659760
v 1334.226196 -179.040939 323.121216
v 1333.363770 -179.026962 327.514801
v 1332.064209 -179.008987 331.813904
v 1330.339966 -179.000305 335.970917
v 1328.204712 -178.994446 339.952850
v 1325.697266 -178.979095 343.696075
v 1323.093018 -178.953445 346.908478
v 1317.763062 -179.067108 219.324081
v 1322.226562 -179.047104 219.779160
v 1326.629517 -179.031967 220.660995
v 1330.937744 -179.036133 221.964310
v 1335.337158 -179.053345 223.824219
v 1346.114258 -178.918930 230.979080
v 1349.805176 -178.914642 234.447296
v 1353.847656 -178.898773 239.321243
v 1362.175537 -178.898773 248.493103
v 1371.946777 -179.088867 270.028503
v 1374.647949 -179.118317 275.798676
v 1376.500366 -179.075623 286.651733
v 1308.842651 -179.067856 219.713425
v 1313.292236 -179.069885 219.300674
v 1300.170166 -179.071259 221.853882
v 1304.460938 -179.069550 220.564102
v 1290.573975 -179.083023 227.061035
v 1367.437134 -179.111252 316.652466
v 1365.738770 -179.100052 318.603821
v 1363.098877 -179.103912 321.035492
v 1371.930542 -179.115173 309.128845
v 1375.138672 -179.044281 300.398956
v 1373.813354 -179.068176 304.723969
v 1376.509521 -179.063705 291.460938
v 1376.039185 -179.034760 295.967346
v 1262.425049 -179.088028 247.777252
v 1267.078003 -179.066299 246.819061
v 1271.539307 -179.052032 246.394257
v 1334.596191 -179.048752 313.896667
v 1329.954102 -178.979706 297.362000
v 1332.662354 -178.984512 303.125122
v 1320.117188 -179.066345 275.848389
v 1307.861938 -179.136566 261.731476
v 1311.899292 -179.125793 266.610687
v 1300.883789 -179.133560 255.557281
v 1304.401245 -179.140747 258.425293
v 1293.231689 -179.104126 250.883026
v 1297.164551 -179.117981 253.038712
v 1284.856201 -179.083801 247.775024
v 1289.122437 -179.093353 249.120422
v 1276.018188 -179.049896 246.409912
v 1280.476685 -179.073029 246.869919
v 1233.173584 -179.114990 399.519745
v 1195.428467 -179.108978 413.511963
v 1167.499512 -179.041809 416.279938
v 1156.134399 -179.094604 416.063354
v 1136.268066 -179.088242 411.668945
v 1126.760254 -179.040787 407.562317
v 1117.543213 -178.962051 402.701935
v 1099.613037 -178.947327 389.902161
v 1086.279175 -178.775574 377.383118
v 1037.632935 -179.095367 299.074738
v 1036.009521 -179.035187 290.642090
v 1035.881104 -179.270233 282.741028
v 1036.660889 -179.261780 279.667175
v 1136.963867 -174.548080 210.745178
v 1190.752808 -168.313751 164.634399
v 1210.287964 -165.649582 140.686859
v 1227.734741 -160.077728 72.042549
v 1235.220215 -158.371704 52.750458
v 1241.635254 -157.682251 43.271057
v 1249.113525 -157.112915 34.602463
v 1252.838257 -156.818420 31.481918
v 1270.819702 -155.126450 21.146835
v 1288.651978 -153.166473 14.896576
v 1358.215576 -147.090912 3.815750
v 1397.919556 -143.689240 4.191742
v 1450.025146 -139.619263 7.596375
v 1477.343750 -138.921753 11.530640
v 1492.363525 -139.111801 15.856964
v 1506.605591 -139.027344 21.874329
v 1512.107910 -139.041901 25.405060
v 1559.798218 -139.156860 67.183136
v 1582.637939 -139.194397 81.502197
v 1592.261963 -139.181808 84.468529
v 1601.826172 -139.274902 86.557251
v 1620.931396 -139.266205 87.990692
v 1648.791260 -139.061798 84.811440
v 1734.958008 -139.004852 71.484909
v 1771.734009 -139.161011 68.911499
v 1781.846558 -139.192459 70.202316
v 1791.086914 -139.247467 72.108162
v 1808.212646 -139.074677 77.990082
v 1820.223145 -139.016266 84.263939
v 1831.704346 -139.051804 93.405823
v 1835.713989 -139.033356 98.372314
v 1839.160400 -139.083527 103.674454
v 1844.284668 -139.100403 116.508179
v 1846.539429 -139.222137 127.927933
v 1846.445679 -139.273712 139.726624
v 1845.148438 -139.276779 144.108902
v 1843.357666 -139.301300 148.030563
v 1838.140137 -139.331787 154.478745
v 1834.734009 -139.328781 157.080292
v 1830.924072 -139.301086 159.465027
v 1820.978760 -139.237823 163.931183
v 1811.135254 -139.230255 167.108185
v 1758.385010 -139.101578 174.812469
v 1289.492188 -178.952515 293.336975
v 1718.442505 -139.341187 176.619385
v 1704.760498 -139.294342 176.702911
v 1671.777100 -139.166656 171.871979
v 1651.562256 -139.249878 165.643982
v 1637.407471 -139.153290 159.271683
v 1619.500488 -139.151123 148.610626
v 1605.702271 -139.106552 138.118164
v 1517.810669 -139.081940 49.721222
v 1502.672607 -139.014404 36.940857
v 1494.065674 -138.992554 31.284714
v 1481.264038 -139.042053 25.970306
v 1435.131836 -139.942627 16.905853
v 1411.998779 -142.092682 13.955383
v 1379.610107 -145.247986 11.221298
v 1360.305664 -147.071854 10.777908
v 1339.917969 -149.071350 12.572876
v 1302.083252 -152.500015 19.216278
v 1255.944702 -156.805649 37.022507
v 1252.767334 -157.065552 39.633804
v 1246.278687 -157.658890 47.462784
v 1240.190063 -158.447937 57.175873
v 1233.953125 -159.959290 74.231071
v 1215.880859 -165.810638 144.469330
v 1195.353516 -168.487091 169.875015
v 1065.843872 -178.768219 265.175140
v 1063.706055 -178.807007 267.857239
v 1062.215332 -178.842529 270.214355
v 1059.272217 -178.999557 277.139832
v 1058.529297 -179.064117 280.016846
v 1058.632812 -179.061829 285.569855
v 1059.501831 -179.013458 288.952332
v 1065.635376 -178.779877 304.062225
v 1069.693848 -178.852875 310.317566
v 1071.770630 -178.888336 312.384338
v 1074.013062 -178.903625 314.191376
v 1079.378174 -178.813202 317.015778
v 1082.572998 -178.706619 318.048950
v 1086.184570 -178.655060 318.875549
v 1096.488770 -178.882660 319.584137
v 1108.083496 -178.912476 319.083496
v 1122.604736 -178.832947 317.236115
v 1153.228516 -178.853394 309.894409
v 996.378784 -178.895950 280.141571
v 986.796387 -178.862488 274.085541
v 965.046753 -179.183777 264.804871
v 892.743774 -182.419189 238.768509
v 818.846069 -188.336700 210.979614
v 800.250977 -189.205139 204.068802
v 786.668640 -189.078308 201.789841
v 746.755615 -189.074310 204.225143
v 701.753662 -189.071686 216.857208
v 490.582977 -188.558044 301.036407
v 487.701965 -188.572021 309.466064
v 487.204742 -188.599335 312.343231
v 487.036621 -188.624985 315.030518
v 487.436096 -188.686157 319.475128
v 488.051697 -188.732971 321.486908
v 491.521362 -188.896500 328.357056
v 492.979889 -188.941010 330.448242
v 496.239105 -189.000244 333.145996
v 498.236664 -189.027100 333.955780
v 500.602753 -189.053894 334.556732
v 509.004120 -189.117523 335.089630
v 573.877319 -191.931168 323.725250
v 699.595215 -198.932312 288.501038
v 704.722656 -198.939636 288.423035
v 709.224915 -198.950684 288.739594
v 716.556274 -198.946350 290.701416
v 719.463989 -198.928238 292.331055
v 722.016052 -198.919037 294.304749
v 725.787109 -198.925629 299.697144
v 727.031494 -198.951950 303.087952
v 728.011963 -198.931656 306.722839
v 729.157349 -198.904617 315.620972
v 745.561523 -198.867157 409.273682
v 749.886902 -198.932983 410.876434
v 740.315613 -198.851257 406.221802
v 730.826233 -198.935776 397.026428
v 732.278564 -198.910980 398.921295
v 726.839417 -198.935852 387.587524
v 728.506897 -198.948364 392.507416
v 724.785889 -199.073898 375.382996
v 725.524902 -198.974213 381.667999
v 756.337402 -199.017166 412.049133
v 761.880188 -199.117798 412.256683
v 780.865845 -199.065491 541.452637
v 776.324951 -199.071472 541.138367
v 794.843384 -199.079163 406.767029
v 799.307373 -199.057083 407.221527
v 803.707886 -199.043030 408.105713
v 808.011169 -198.999405 409.413971
v 812.404846 -198.943024 411.279541
v 823.190674 -198.987167 418.426086
v 826.904846 -199.004059 421.870941
v 830.529785 -198.991486 425.981659
v 850.500732 -199.419083 459.973328
v 851.720093 -199.498444 463.250061
v 853.213745 -199.576385 470.493866
v 790.093201 -199.071747 406.791870
v 769.571655 -199.199203 411.282196
v 844.627625 -198.934174 503.991882
v 842.961853 -198.957306 505.943726
v 836.468994 -198.960815 511.245605
v 849.043335 -198.864426 496.539551
v 852.157593 -198.977005 487.903503
v 850.875610 -198.884644 492.185120
v 853.037476 -199.208557 483.220245
v 771.860352 -199.071228 540.373901
v 767.514526 -199.106293 539.155823
v 763.346619 -199.136078 537.490356
v 759.386047 -199.147141 535.391907
v 755.659180 -199.149353 532.901001
v 752.134399 -199.208374 530.052124
v 748.654175 -199.325775 526.797913
v 741.602234 -199.306915 518.648926
v 701.094849 -198.963013 378.307861
v 698.388916 -198.970474 403.377991
v 698.372314 -198.971161 417.838409
v 789.670288 -199.008148 540.825562
v 785.419678 -199.055161 541.322571
v 794.467224 -198.958344 539.741760
v 796.942200 -198.940887 538.844238
v 800.181152 -198.943481 537.259521
v 710.014282 -199.157501 477.323547
v 706.897095 -199.000839 470.033936
v 718.275879 -199.048065 489.622681
v 709.859802 -199.096954 335.571716
v 711.751343 -199.042297 314.703583
v 711.211365 -198.993286 306.749573
v 710.631836 -198.975449 304.890839
v 709.908691 -198.966446 303.455322
v 707.826660 -198.998489 301.539368
v 706.472046 -199.006165 300.980408
v 704.994019 -199.011673 300.565948
v 701.110229 -199.029358 300.123291
v 685.241943 -199.023285 301.367615
v 662.105652 -197.901337 307.254211
v 507.730347 -189.124115 344.344452
v 497.507568 -189.077515 343.269196
v 493.573486 -189.049667 342.017090
v 489.929993 -189.021973 340.518158
v 484.094543 -188.928207 336.848389
v 481.895569 -188.905945 334.707306
v 479.963684 -188.877228 332.421814
v 476.661133 -188.799545 326.943573
v 474.628357 -188.734619 321.991272
v 473.179321 -188.691467 316.066132
v 472.969818 -188.681580 313.363617
v 472.965210 -188.670792 310.671783
v 473.375183 -188.649841 305.213898
v 474.250366 -188.677155 300.631561
v 567.346863 -188.651947 244.528259
v 716.761230 -188.934753 197.142883
v 746.407104 -188.975281 188.917877
v 763.171509 -189.041916 187.585007
v 785.972107 -189.034744 189.391220
v 809.603882 -188.123260 197.133301
v 1029.574829 -179.096100 265.542847
v 424.007599 -188.667511 273.496399
v 413.374237 -188.752258 266.089264
v 405.562256 -188.983322 258.661102
v 398.299438 -189.122314 248.348297
v 396.020203 -189.172150 243.011108
v 394.181091 -189.220779 237.460281
v 391.808167 -189.076080 223.858673
v 392.309448 -195.390503 159.962952
v 390.627869 -196.582367 146.796005
v 378.950439 -198.445801 110.015732
v 368.663086 -198.513123 88.977890
v 361.310669 -198.409073 77.326790
v 354.542847 -198.345703 68.604767
v 346.017822 -198.574295 60.221680
v 338.414062 -198.640060 54.933853
v 320.467346 -198.864700 48.470108
v 149.341858 -213.181122 13.806259
v 110.357178 -217.177826 11.186584
v 84.995178 -219.477905 11.264450
v 35.965515 -223.928955 11.893005
v -140.100098 -239.949677 -7.790527
v -152.356689 -240.663055 -10.643433
v -165.869141 -242.241913 -18.641113
v -171.502197 -242.349472 -23.522232
v -176.769043 -242.822464 -28.856964
v -185.436279 -242.894684 -41.050140
v -187.657227 -243.710236 -45.587936
v -191.751465 -244.549881 -60.615234
v -192.839844 -244.915695 -68.492493
v -193.259766 -245.378387 -76.415588
v -190.894287 -246.586914 -92.360352
v -188.084961 -247.383331 -100.277344
v -184.493652 -247.838684 -107.906982
v -174.289673 -248.877518 -121.091156
v -166.887085 -249.020630 -127.168732
v -145.448975 -249.581787 -140.658691
v -132.112793 -250.724319 -146.715179
v -112.171387 -252.610474 -152.403931
v -65.911072 -256.702728 -157.179260
v -49.415894 -258.151123 -155.981873
v -35.228149 -259.455872 -152.346893
v 15.497009 -264.280212 -137.436981
v 43.528625 -266.628662 -132.920074
v 131.151611 -268.971802 -133.216614
v 138.978638 -269.006592 -135.019714
v 141.155640 -269.018646 -136.043701
v 142.900818 -269.025879 -137.205444
v 145.178101 -268.998230 -140.244781
v 145.766113 -268.963104 -142.087646
v 146.115845 -268.925446 -143.946594
v 146.006714 -268.888397 -147.155121
v 145.528198 -268.897247 -148.492432
v 144.742432 -268.905334 -149.803284
v 141.232544 -268.898010 -152.977448
v 136.703430 -268.862610 -155.962219
v 101.465210 -268.842896 -169.670868
v -72.565796 -268.764648 -224.378326
v -145.776001 -268.979340 -230.001556
v -153.435303 -269.019531 -230.519592
v -157.838135 -269.004517 -231.502319
v -170.099854 -268.927612 -237.002350
v -173.543701 -268.925842 -239.469910
v -162.106689 -268.985413 -232.918335
v -166.209473 -268.954041 -234.757690
v -182.330688 -268.878784 -251.115082
v -183.560059 -268.841675 -254.973297
v -176.521973 -268.843384 -283.751038
v -174.673340 -268.841980 -285.540771
v -180.899780 -268.859619 -277.111908
v -179.143066 -268.858093 -280.284912
v -183.542725 -268.796936 -268.592377
v -182.608154 -268.818329 -272.629089
v -185.576782 -268.786041 -259.906158
v -184.129395 -268.770599 -264.184875
v -177.291992 -268.928284 -243.118530
v -179.856689 -268.918030 -246.448090
v -125.189697 -268.821899 -302.027740
v -121.712158 -268.855652 -300.111084
v -133.295776 -268.877686 -304.289429
v -129.638062 -268.842346 -303.600433
v -142.198242 -268.953552 -304.179230
v -138.226562 -268.927063 -304.509338
v -151.864502 -268.998566 -301.641693
v -149.038330 -268.986328 -302.693665
v -66.332153 -268.724426 -252.467712
v -48.027344 -268.680969 -238.859528
v 133.664307 -268.823669 -168.828979
v 143.507996 -268.919922 -163.601379
v 150.881714 -268.893982 -158.559326
v 155.999756 -268.847046 -153.377869
v 156.956909 -268.832703 -151.245117
v 157.485474 -268.834717 -149.120697
v 157.683838 -268.906616 -142.007660
v 157.328857 -268.946259 -138.994659
v 155.384033 -268.991089 -133.854797
v 153.731873 -269.013550 -131.475525
v 151.605957 -269.025208 -129.262024
v 143.888184 -269.019348 -125.528687
v 121.665283 -268.927002 -121.761719
v 41.047913 -266.788361 -123.109528
v 12.285889 -264.592041 -128.034424
v -36.925842 -259.553558 -144.544922
v -50.720337 -258.236023 -148.593018
v -66.711304 -256.858521 -149.992004
v -109.239380 -252.833069 -146.025238
v -127.419922 -251.053436 -140.944672
v -140.016968 -249.647812 -135.326538
v -159.850098 -249.008118 -122.892120
v -166.543091 -248.849655 -117.375092
v -175.715332 -247.895538 -105.661560
v -178.964966 -247.321472 -98.946320
v -181.542236 -246.649506 -91.947083
v -183.884766 -245.396484 -77.575775
v -183.650879 -244.926697 -70.300873
v -182.801758 -244.600632 -63.024384
v -179.267578 -244.050537 -49.183655
v -177.636963 -243.800491 -45.660507
v -170.500366 -243.081635 -35.275665
v -166.321533 -242.544312 -31.031708
v -161.786377 -242.082626 -27.180725
v -149.929565 -241.166183 -20.293549
v -124.423828 -238.958038 -15.780136
v 35.336731 -224.122131 3.188293
v 84.260132 -219.426132 3.235870
v 123.826721 -215.810638 2.747253
v 153.410339 -213.061157 5.604980
v 322.823303 -199.194946 39.618576
v 350.909912 -198.376740 52.677246
v 361.789856 -198.198318 62.562851
v 368.947266 -198.320435 71.525848
v 382.779053 -197.865601 96.649551
v 398.957397 -196.723709 143.626999
v 400.747070 -194.650589 164.790283
v 400.441833 -189.983429 216.971756
v 402.517700 -189.151566 235.307190
v 404.354675 -189.079178 240.011459
v 406.547150 -189.013092 244.368469
v 412.259003 -188.862701 251.550293
v 416.202362 -188.760605 254.692749
v 433.710632 -188.712006 265.012726
v 488.779022 -188.957977 269.372772
v 1289.449829 -179.068726 346.757111
v 1289.039307 -179.075745 350.959045
v 1287.813599 -179.141235 355.905762
v 1286.177246 -179.217621 359.917053
v 1283.351440 -179.306030 364.981750
v 1277.153320 -179.369232 374.202148
v 1217.312988 -178.877823 275.790344
v 1221.970459 -178.920212 274.827454
v 1226.430420 -178.959442 274.404175
v 1289.415283 -179.082306 341.978302
v 1284.844482 -179.002777 325.372803
v 1287.518066 -179.068268 331.170685
v 1275.334229 -178.758240 303.659424
v 1262.857056 -178.874786 289.637268
v 1266.904907 -178.759064 294.505676
v 1259.144775 -178.962891 286.190552
v 1248.355103 -179.066940 279.047974
v 1239.729492 -179.061081 275.802917
v 1243.994019 -179.078247 277.149658
v 1230.903931 -178.999878 274.425018
v 1235.356201 -179.021469 274.891357
v 417.706726 -188.571991 292.837921
v 352.848755 -188.654327 296.342560
v 328.273132 -188.848022 293.731079
v 303.849060 -189.033737 288.452942
v 277.483398 -189.049973 279.799652
v 116.756714 -189.094879 197.461563
v -174.496094 -188.915268 115.605179
v -234.211670 -188.762939 97.133575
v -278.734497 -188.497055 74.985619
v -308.482910 -188.773132 56.233856
v -357.664429 -188.729324 18.616241
v -385.114136 -188.614777 2.523712
v -390.830566 -188.667725 2.059296
v -393.203003 -188.709961 2.341446
v -395.479492 -188.749512 2.804321
v -399.609863 -188.745575 4.314743
v -401.465942 -188.687134 5.352661
v -403.229736 -188.627411 6.533630
v -406.423096 -188.511749 9.456421
v -407.826172 -188.452393 11.192017
v -409.049927 -188.396606 13.052612
v -410.461792 -188.323410 17.221985
v -410.641235 -188.354843 19.534302
v -410.612305 -188.396820 21.984177
v -409.321777 -188.419815 30.293823
v -408.229980 -188.406738 34.006027
v -403.499146 -188.341507 42.343140
v -397.156860 -188.299530 50.221375
v -372.695312 -188.490524 69.967743
v -351.273926 -188.611206 82.191322
v -248.446533 -191.865768 121.192383
v -235.943481 -193.007538 126.295792
v -222.296387 -194.338776 135.072693
v -179.108643 -199.966614 186.919861
v -148.932495 -203.031250 235.289139
v -139.011963 -206.488953 254.573380
v -131.157104 -209.813385 279.701996
v -129.785034 -212.691010 304.598083
v -131.223389 -213.386230 314.308258
v -132.484131 -213.663513 318.540070
v -134.140381 -214.030121 322.681061
v -149.458496 -216.043091 340.602783
v -291.131348 -229.077667 482.486755
v -306.712402 -229.061096 491.927490
v -321.843994 -229.154083 498.597900
v -344.108398 -230.366592 505.784821
v -594.437500 -255.135559 554.072083
v -702.145020 -265.063354 556.404541
v -1014.214722 -269.502563 570.324768
v -1011.903320 -269.567719 568.795959
v -1032.163818 -269.262207 598.322754
v -1031.979980 -269.067932 616.897949
v -1033.210938 -269.040039 609.396606
v -989.011719 -269.054443 682.949646
v -992.172119 -269.045105 682.486328
v -994.582275 -269.039703 681.868225
v -1002.532349 -269.074829 678.295105
v -1023.138916 -269.157532 654.790405
v -1025.677979 -269.077087 645.754761
v -1018.950806 -269.203979 662.875916
v -1021.218262 -269.216705 658.993347
v -1013.377075 -269.196747 669.921143
v -1016.331543 -269.209045 666.526978
v -1006.575684 -269.126282 675.780701
v -1010.118286 -269.173737 673.014771
v -1021.973877 -269.404327 577.570190
v -1027.204712 -269.507416 585.147461
v -1024.849365 -269.479797 581.306030
v -1030.878052 -269.388428 593.567505
v -1029.222168 -269.480896 589.247681
v -911.414795 -268.968018 652.807556
v -915.081055 -268.953461 660.119019
v -917.660522 -268.955017 663.816162
v -943.802002 -269.026062 680.441345
v -950.986572 -269.037079 681.423157
v -935.138428 -268.968781 677.585754
v -939.322388 -269.001770 679.214600
v -927.359741 -268.938599 673.137085
v -931.143555 -268.936829 675.556213
v -920.584473 -268.957947 667.237122
v -923.830811 -268.948944 670.356689
v -815.349976 -269.038055 565.466797
v -824.239624 -269.060913 568.059265
v -846.271484 -269.105011 577.784424
v -865.824463 -269.194183 589.774353
v -876.385010 -269.218506 597.710327
v -884.014038 -269.109924 604.947266
v -890.614136 -269.071350 612.461609
v -900.810791 -269.020447 628.574097
v -968.833374 -269.044373 685.403564
v -999.217041 -269.367310 563.742676
v -990.009766 -269.153503 561.444031
v -754.177246 -267.193970 549.067078
v -600.332520 -255.644653 548.067505
v -389.987793 -234.775528 510.159760
v -318.327148 -229.082703 489.828552
v -288.466431 -229.102997 470.415924
v -274.795410 -228.756287 458.671997
v -249.118652 -226.198517 433.635315
v -155.473633 -215.082657 335.829773
v -140.634521 -213.974899 319.009460
v -139.110352 -213.767136 315.255371
v -135.911011 -212.132416 297.219543
v -135.798340 -211.389984 288.551300
v -136.635864 -210.356369 280.587402
v -143.690674 -207.560654 256.345337
v -151.993774 -204.902588 238.711395
v -173.885254 -201.781586 202.110611
v -218.630493 -195.173141 144.526962
v -225.633179 -194.293915 137.622238
v -236.690430 -193.181625 130.571533
v -244.441772 -192.453552 127.271255
v -308.219116 -189.172180 106.579742
v -354.120850 -188.608521 85.721764
v -374.920776 -188.320282 73.374199
v -400.655396 -188.157959 52.582031
v -407.721680 -188.304108 44.150253
v -413.178467 -188.379211 34.784363
v -414.458130 -188.390137 30.784210
v -415.312256 -188.387024 26.965591
v -415.978149 -188.353043 20.008270
v -415.848145 -188.368805 16.878250
v -415.500732 -188.391769 13.966751
v -414.009033 -188.399658 9.193970
v -412.880249 -188.396576 7.324326
v -411.579956 -188.405640 5.635284
v -408.364746 -188.520264 2.646027
v -406.445923 -188.582092 1.322754
v -404.338623 -188.618042 0.096649
v -398.452026 -188.690277 -2.111084
v -380.589722 -188.613770 -3.453888
v -354.319458 -188.668579 11.186523
v -301.049072 -188.823502 52.878601
v -275.727539 -188.792969 68.102158
v -233.764648 -188.793442 89.348862
v 103.392822 -189.006775 181.091583
v 281.072876 -189.095947 267.896484
v 305.755127 -189.086578 276.353210
v 327.579102 -189.043640 282.040009
v 356.671326 -188.841263 285.313263
v 399.437927 -188.645569 284.434113
v 418.176575 -188.592651 282.621826
v 449.778625 -188.970520 274.423828
v -386.862305 -188.612854 -10.085205
v -510.150391 -188.758163 -97.114777
v -551.229492 -189.022934 -126.589172
v -559.207520 -189.116821 -129.935455
v -564.420654 -189.076569 -131.097778
v -570.057617 -188.928650 -131.503815
v -573.584473 -188.820770 -131.093140
v -577.008057 -188.720886 -130.116058
v -578.260254 -188.685959 -129.477295
v -579.385132 -188.653564 -128.744965
v -581.280151 -188.599792 -126.848022
v -582.046631 -188.583435 -125.678528
v -582.678467 -188.572861 -124.393799
v -583.253296 -188.630402 -121.332397
v -583.187744 -188.701691 -119.564087
v -582.957031 -188.763885 -117.710785
v -581.764648 -188.615204 -113.530518
v -579.862305 -188.643967 -109.566132
v -576.332764 -189.372559 -104.329712
v -417.541870 -214.995300 119.370331
v -397.116211 -218.783340 147.289429
v -364.623291 -222.453323 187.690094
v -299.666992 -227.855713 244.374619
v -282.848145 -228.877701 259.956146
v -278.852539 -228.919891 265.319031
v -275.063477 -228.921570 272.497314
v -273.711182 -228.934128 276.234253
v -272.669678 -228.940582 280.081726
v -272.266235 -228.912537 287.948242
v -272.909424 -228.908691 291.885193
v -273.885376 -228.891571 295.648438
v -276.771729 -228.854065 301.784485
v -278.658936 -228.856598 304.114380
v -280.800293 -228.869415 306.124542
v -286.226318 -228.906631 309.093079
v -289.529785 -228.929565 310.070038
v -293.152588 -228.952560 310.792419
v -302.423584 -229.002167 311.143188
v -311.479248 -228.998734 310.322021
v -330.380615 -229.144043 305.664612
v -338.346436 -229.145752 302.671387
v -368.791748 -230.236969 280.853088
v -425.739014 -235.611755 229.284012
v -661.597656 -238.859497 151.551529
v -789.656006 -238.736450 141.298309
v -836.510620 -238.715698 148.100922
v -868.541382 -238.873505 158.540436
v -992.418823 -239.053802 122.153458
v -988.278809 -238.950836 119.587708
v -1009.325928 -239.437469 149.037903
v -1010.028564 -239.202332 161.872711
v -973.183594 -238.894897 208.790680
v -975.913330 -238.884949 208.144348
v -985.796265 -238.794403 204.027588
v -1006.209961 -239.003250 180.147476
v -1002.077515 -238.943665 188.471268
v -1004.284424 -238.937988 184.532684
v -996.616943 -239.132584 195.629425
v -999.521362 -239.041779 192.185196
v -989.851929 -238.916260 201.525528
v -993.387573 -239.036804 198.752502
v -999.749023 -239.228348 128.895248
v -996.815918 -239.174408 125.727982
v -1004.807983 -239.266525 136.304138
v -1002.475830 -239.275909 132.486038
v -1008.232178 -239.347092 144.475327
v -1006.729248 -239.238617 140.308197
v -1009.503174 -239.109009 167.140015
v -981.447388 -238.840088 116.909660
v -959.462646 -238.938690 113.514603
v -900.529907 -239.307129 175.121567
v -928.089844 -239.029083 197.631989
v -940.652832 -239.137085 205.385834
v -948.469971 -239.116684 207.876541
v -959.000488 -239.002060 209.385208
v -927.916016 -239.009766 113.970581
v -554.909180 -239.139206 161.039612
v -446.396606 -234.514175 197.558548
v -432.057129 -233.020416 206.345352
v -413.581055 -231.616180 222.116013
v -369.859253 -229.731125 264.170471
v -336.169678 -229.200714 289.485596
v -325.451904 -229.087173 293.796692
v -313.459473 -229.001801 296.639832
v -305.628418 -229.002289 297.071930
v -298.273804 -228.989777 296.136780
v -295.776611 -228.980774 295.107910
v -293.650024 -228.973602 293.822388
v -290.570679 -228.963104 290.291199
v -289.594849 -228.959564 288.074524
v -288.903442 -228.956451 285.695160
v -288.648682 -228.952148 280.533417
v -289.077637 -228.940521 277.776184
v -289.765137 -228.921814 274.944092
v -292.315552 -228.848480 268.645416
v -295.402344 -228.770599 263.298157
v -310.852295 -227.865540 247.284393
v -403.076294 -218.916687 149.682373
v -581.700562 -189.128510 -102.358337
v -585.531982 -188.042084 -108.016968
v -587.686035 -188.288681 -112.411652
v -588.965210 -188.613312 -117.229156
v -589.117676 -188.527679 -119.479004
v -589.054688 -188.442841 -121.712372
v -588.085571 -188.421875 -126.019958
v -587.197754 -188.456223 -128.053528
v -586.149902 -188.492615 -129.938354
v -583.597412 -188.550690 -132.758942
v -582.092529 -188.582962 -133.690216
v -580.425415 -188.620117 -134.459656
v -575.930664 -188.731415 -135.699463
v -571.402710 -188.885223 -136.339722
v -564.662109 -189.098404 -136.135559
v -558.735474 -189.039490 -135.009064
v -549.640259 -188.848663 -131.369843
v -506.820312 -188.731384 -101.715607
v -426.494019 -188.591583 -35.699707
v -969.230469 -269.063324 707.507263
v -1025.243408 -239.376694 155.343948
v -196.016846 -268.791382 -259.721039
v 874.270264 -199.268707 476.757111
v 1769.653564 -139.187469 171.866943
v 1765.880127 -139.140076 169.799179
v 1762.642334 -139.075363 167.248260
v 1758.557007 -138.990143 159.643951
v 1766.147461 -139.169403 176.060486
v 1767.893555 -139.178619 182.505508
v 1770.359375 -139.085281 192.311707
v 1765.108887 -139.173538 178.666733
v 1761.942383 -139.136978 176.279343
v 1742.726074 -139.069794 175.289566
v 1727.932617 -139.246216 176.262375
v 1738.591064 -139.024796 173.829437
v 1734.822510 -139.060150 171.756897
v 1731.588989 -139.105118 169.201752
v 1727.504150 -139.111298 161.596786
v 1735.096191 -139.117584 178.011948
v 1736.842163 -139.076233 184.457031
v 1739.308350 -139.193359 194.262894
v 1734.056030 -139.144531 180.619812
v 1730.887695 -139.201996 178.159317
v 1375.247070 -178.975784 238.592438
v 1006.661316 -179.029602 274.332947
v 1023.697144 -179.124115 275.208008
v 1049.438110 -179.022324 272.355896
v 1059.455322 -178.860779 268.019470
v 1072.083496 -178.383286 253.354309
v 1055.053833 -178.864410 261.774506
v 1802.917969 -139.169464 163.650864
v 1227.652100 -179.085632 395.305267
l 321 322
l 322 323
l 323 324
l 324 325
l 325 326
l 326 327
l 327 328
l 328 2
l 2 5
l 329 330
l 330 331
l 331 332
l 332 333
l 333 3
l 3 334
l 334 335
l 335 336
l 336 337
l 337 338
l 338 339
l 339 4
l 4 340
l 341 342
l 342 329
l 343 344
l 344 341
l 7 345
l 345 343
l 6 346
l 346 347
l 347 348
l 348 5
l 349 6
l 350 351
l 351 349
l 340 352
l 352 353
l 353 350
l 7 8
l 8 354
l 354 355
l 355 356
l 9 357
l 357 321
l 358 359
l 359 9
l 360 358
l 361 362
l 362 360
l 363 364
l 364 361
l 365 366
l 366 363
l 367 368
l 368 365
l 356 369
l 369 370
l 370 367
l 7 199
l 371 10
l 10 372
l 372 11
l 11 373
l 373 374
l 374 12
l 12 375
l 375 376
l 376 377
l 377 13
l 13 378
l 378 379
l 379 14
l 14 15
l 15 16
l 16 380
l 380 381
l 381 17
l 17 382
l 382 383
l 383 18
l 18 19
l 1037 20
l 20 384
l 384 385
l 385 21
l 21 386
l 386 22
l 22 387
l 387 23
l 23 388
l 388 389
l 389 24
l 24 390
l 390 391
l 391 25
l 25 392
l 392 393
l 393 26
l 26 394
l 394 395
l 395 396
l 396 27
l 27 397
l 397 398
l 398 28
l 28 399
l 399 400
l 400 29
l 29 401
l 401 30
l 30 402
l 402 403
l 403 404
l 404 31
l 31 405
l 405 406
l 406 407
l 407 32
l 32 408
l 408 409
l 409 410
l 410 33
l 33 411
l 411 412
l 412 34
l 34 413
l 413 414
l 414 415
l 415 35
l 35 416
l 416 417
l 417 36
l 36 418
l 418 419
l 419 420
l 420 37
l 37 421
l 421 422
l 422 423
l 423 38
l 38 424
l 424 425
l 425 39
l 39 40
l 40 426
l 426 1021
l 427 739
l 428 1022
l 428 429
l 429 42
l 42 430
l 430 43
l 43 431
l 431 432
l 432 44
l 44 433
l 433 434
l 434 45
l 45 46
l 46 435
l 435 436
l 436 437
l 437 47
l 47 438
l 438 48
l 48 439
l 439 440
l 440 441
l 441 442
l 442 443
l 443 444
l 444 49
l 49 50
l 50 445
l 445 446
l 446 51
l 51 447
l 447 448
l 448 449
l 449 52
l 52 450
l 450 53
l 53 451
l 451 54
l 54 55
l 55 452
l 452 453
l 453 454
l 454 56
l 56 455
l 455 456
l 456 57
l 57 457
l 457 458
l 458 58
l 58 459
l 459 59
l 59 460
l 460 461
l 461 462
l 462 60
l 60 463
l 463 464
l 464 465
l 465 61
l 61 466
l 466 467
l 467 468
l 468 62
l 62 469
l 469 63
l 63 199
l 15 64
l 64 470
l 470 471
l 471 65
l 65 472
l 472 473
l 473 474
l 474 475
l 475 66
l 66 476
l 476 67
l 67 477
l 477 478
l 478 68
l 68 479
l 479 69
l 69 480
l 480 481
l 481 482
l 482 70
l 70 483
l 483 484
l 484 71
l 71 485
l 485 486
l 486 72
l 72 487
l 487 488
l 488 489
l 489 73
l 73 490
l 490 74
l 74 491
l 491 75
l 75 76
l 76 492
l 492 493
l 493 494
l 494 77
l 77 495
l 495 496
l 496 497
l 497 78
l 78 498
l 498 499
l 499 500
l 500 79
l 79 501
l 501 80
l 82 502
l 502 503
l 503 81
l 83 504
l 504 82
l 84 505
l 505 506
l 506 83
l 507 508
l 508 84
l 85 509
l 509 510
l 510 507
l 80 85
l 81 511
l 511 512
l 512 86
l 513 514
l 515 516
l 516 517
l 517 518
l 518 519
l 519 87
l 87 520
l 520 521
l 521 522
l 522 88
l 88 89
l 89 523
l 523 524
l 524 90
l 90 525
l 525 91
l 92 526
l 526 515
l 86 527
l 527 92
l 93 528
l 528 529
l 529 530
l 531 93
l 532 533
l 533 531
l 91 534
l 534 532
l 514 535
l 535 536
l 536 537
l 537 538
l 538 539
l 539 540
l 540 541
l 541 542
l 544 543
l 96 545
l 545 544
l 94 546
l 546 547
l 547 513
l 94 548
l 548 549
l 549 550
l 550 95
l 98 551
l 551 552
l 552 97
l 553 98
l 542 553
l 97 96
l 530 95
l 543 554
l 554 555
l 555 99
l 99 556
l 556 557
l 557 558
l 558 100
l 100 559
l 559 560
l 560 561
l 561 101
l 101 562
l 562 102
l 102 563
l 563 564
l 564 103
l 103 104
l 104 565
l 565 105
l 105 566
l 566 567
l 567 568
l 568 106
l 106 569
l 569 570
l 570 571
l 571 107
l 107 572
l 572 573
l 573 108
l 108 574
l 574 575
l 575 576
l 576 109
l 109 577
l 577 578
l 578 110
l 111 579
l 579 580
l 580 581
l 581 582
l 582 112
l 112 583
l 583 113
l 113 584
l 584 114
l 114 115
l 115 116
l 116 117
l 117 585
l 19 585
l 68 110
l 118 119
l 119 586
l 586 120
l 120 587
l 587 588
l 588 121
l 121 589
l 589 590
l 590 591
l 591 122
l 122 592
l 592 123
l 123 124
l 124 593
l 593 594
l 594 125
l 125 595
l 595 596
l 596 597
l 597 598
l 598 126
l 126 599
l 599 600
l 600 601
l 601 127
l 127 602
l 602 603
l 603 128
l 128 604
l 604 605
l 605 129
l 129 130
l 130 131
l 131 132
l 132 606
l 606 607
l 607 133
l 133 608
l 608 609
l 609 610
l 610 134
l 134 611
l 611 612
l 612 135
l 135 613
l 613 614
l 614 615
l 615 136
l 136 616
l 616 617
l 617 618
l 618 137
l 137 619
l 619 620
l 620 138
l 138 621
l 621 622
l 622 139
l 139 623
l 623 140
l 140 624
l 624 141
l 141 625
l 625 626
l 626 627
l 627 142
l 142 628
l 628 143
l 143 144
l 144 629
l 629 145
l 145 630
l 630 631
l 631 632
l 632 146
l 146 633
l 633 634
l 634 635
l 635 147
l 147 636
l 636 637
l 637 638
l 638 148
l 148 639
l 639 640
l 640 149
l 149 641
l 641 150
l 150 642
l 642 151
l 151 643
l 643 644
l 644 645
l 646 647
l 647 152
l 645 648
l 648 649
l 649 646
l 153 650
l 650 651
l 651 154
l 156 652
l 652 653
l 653 155
l 157 654
l 654 655
l 655 156
l 656 657
l 657 157
l 154 658
l 658 659
l 659 656
l 152 660
l 660 661
l 661 153
l 160 662
l 662 663
l 663 159
l 161 664
l 664 665
l 665 160
l 162 666
l 666 667
l 667 161
l 158 668
l 668 669
l 669 162
l 155 158
l 159 670
l 670 671
l 671 163
l 163 164
l 164 165
l 165 672
l 672 673
l 673 674
l 674 166
l 166 675
l 675 676
l 676 677
l 677 167
l 167 678
l 678 679
l 679 168
l 168 680
l 680 681
l 681 682
l 682 169
l 169 683
l 683 170
l 170 684
l 684 171
l 171 685
l 685 172
l 172 686
l 686 687
l 687 688
l 688 173
l 173 689
l 689 174
l 174 690
l 690 175
l 175 691
l 691 692
l 692 176
l 176 693
l 693 694
l 694 177
l 177 695
l 695 696
l 696 697
l 697 178
l 178 698
l 698 699
l 699 700
l 700 179
l 179 701
l 701 702
l 702 180
l 180 703
l 703 704
l 704 705
l 705 181
l 181 706
l 706 707
l 707 182
l 182 183
l 183 708
l 708 709
l 709 184
l 184 710
l 710 711
l 711 185
l 185 712
l 712 186
l 186 713
l 713 187
l 187 714
l 714 715
l 715 188
l 188 716
l 716 189
l 189 717
l 717 190
l 190 718
l 718 719
l 719 191
l 191 720
l 720 721
l 721 722
l 722 192
l 192 723
l 723 724
l 724 193
l 193 725
l 725 194
l 194 195
l 195 196
l 111 726
l 726 196
l 727 728
l 728 197
l 197 729
l 729 730
l 730 731
l 731 732
l 732 198
l 199 200
l 200 733
l 733 734
l 734 735
l 201 736
l 736 727
l 737 738
l 738 201
l 739 737
l 740 741
l 741 739
l 202 742
l 742 740
l 743 202
l 744 745
l 745 743
l 735 746
l 746 747
l 747 744
l 2 198
l 371 198
l 110 118
l 110 111
l 118 748
l 748 203
l 203 749
l 749 750
l 750 751
l 751 752
l 752 204
l 204 753
l 753 205
l 205 754
l 754 755
l 755 756
l 756 757
l 757 758
l 758 206
l 206 759
l 759 207
l 207 760
l 760 761
l 761 762
l 762 208
l 208 763
l 763 764
l 764 765
l 765 209
l 209 766
l 766 767
l 767 768
l 768 210
l 210 769
l 769 770
l 770 771
l 771 211
l 211 772
l 772 773
l 773 212
l 212 774
l 774 775
l 775 213
l 213 776
l 776 777
l 777 214
l 214 215
l 215 778
l 778 779
l 779 216
l 216 780
l 780 217
l 217 781
l 781 782
l 782 783
l 783 218
l 218 784
l 784 219
l 219 785
l 785 220
l 220 786
l 786 787
l 787 788
l 788 221
l 221 789
l 789 222
l 222 223
l 223 224
l 224 790
l 790 225
l 225 791
l 791 792
l 792 793
l 793 226
l 226 227
l 227 794
l 794 795
l 795 228
l 233 796
l 796 797
l 797 232
l 229 798
l 799 800
l 800 229
l 230 801
l 801 802
l 802 803
l 803 231
l 231 804
l 805 806
l 807 808
l 808 805
l 809 810
l 810 807
l 804 811
l 811 812
l 812 809
l 813 233
l 814 815
l 815 813
l 798 816
l 816 817
l 817 814
l 818 819
l 819 820
l 821 822
l 823 824
l 824 821
l 825 826
l 826 823
l 820 827
l 827 828
l 828 825
l 228 829
l 829 830
l 830 234
l 234 831
l 831 832
l 832 833
l 833 834
l 834 835
l 835 235
l 235 836
l 818 836
l 230 837
l 837 822
l 799 806
l 232 838
l 838 839
l 839 236
l 236 840
l 840 841
l 841 237
l 237 842
l 842 238
l 238 843
l 843 239
l 239 844
l 844 845
l 845 846
l 846 240
l 240 847
l 847 241
l 241 848
l 848 849
l 849 242
l 242 850
l 850 851
l 851 852
l 852 243
l 243 853
l 853 854
l 854 855
l 855 244
l 244 856
l 856 857
l 857 245
l 245 858
l 858 859
l 859 246
l 246 860
l 860 861
l 861 862
l 862 247
l 247 863
l 863 864
l 864 248
l 248 865
l 865 866
l 866 867
l 867 249
l 249 868
l 868 869
l 869 870
l 870 250
l 250 871
l 871 872
l 872 873
l 873 251
l 251 874
l 874 875
l 875 876
l 876 252
l 252 877
l 877 253
l 253 878
l 878 254
l 254 255
l 255 879
l 879 256
l 256 880
l 880 881
l 881 882
l 882 257
l 257 258
l 258 883
l 883 259
l 259 260
l 260 884
l 884 885
l 885 886
l 886 261
l 261 887
l 887 888
l 119 889
l 889 888
l 119 890
l 890 195
l 254 891
l 206 253
l 253 262
l 262 892
l 892 263
l 263 893
l 893 264
l 264 894
l 894 895
l 895 265
l 265 896
l 896 897
l 897 266
l 266 898
l 898 899
l 899 900
l 900 267
l 267 901
l 901 902
l 902 903
l 903 268
l 268 904
l 904 905
l 905 906
l 906 269
l 269 907
l 907 908
l 908 909
l 909 270
l 270 271
l 271 272
l 272 273
l 273 910
l 910 274
l 274 911
l 911 275
l 275 912
l 912 913
l 913 276
l 276 914
l 914 915
l 915 277
l 277 916
l 916 917
l 917 918
l 918 278
l 278 919
l 919 920
l 920 921
l 921 279
l 279 922
l 922 923
l 923 924
l 924 280
l 280 925
l 925 926
l 926 927
l 927 281
l 281 928
l 928 929
l 929 282
l 282 930
l 930 931
l 931 283
l 283 932
l 932 933
l 933 284
l 284 285
l 285 286
l 286 934
l 934 287
l 287 935
l 935 288
l 288 936
l 936 937
l 937 289
l 295 938
l 938 939
l 939 294
l 290 940
l 941 290
l 291 942
l 942 943
l 943 292
l 292 944
l 945 293
l 946 947
l 947 945
l 948 949
l 949 946
l 944 950
l 950 951
l 951 948
l 952 953
l 953 295
l 954 955
l 955 952
l 940 956
l 956 957
l 957 954
l 941 958
l 958 293
l 294 959
l 959 296
l 296 960
l 289 961
l 961 962
l 962 297
l 297 963
l 963 964
l 964 298
l 291 965
l 965 298
l 960 966
l 966 299
l 299 300
l 300 967
l 967 301
l 301 968
l 968 969
l 969 970
l 970 971
l 971 302
l 302 972
l 972 973
l 973 303
l 303 974
l 974 975
l 975 304
l 304 976
l 976 977
l 977 978
l 978 305
l 305 979
l 979 980
l 980 981
l 981 306
l 306 982
l 982 983
l 983 984
l 984 307
l 307 985
l 985 986
l 986 308
l 308 987
l 987 309
l 309 988
l 988 310
l 310 311
l 311 312
l 312 989
l 989 990
l 990 991
l 991 313
l 313 992
l 992 993
l 993 994
l 994 314
l 314 995
l 995 996
l 996 997
l 997 315
l 315 998
l 998 999
l 999 1000
l 1000 316
l 316 1001
l 1001 1002
l 1002 317
l 317 1003
l 1003 1004
l 1004 318
l 318 1005
l 1005 319
l 319 1006
l 1006 320
l 320 1007
l 891 1007
l 837 1008
l 290 1009
l 658 1010
l 91 1011
l 40 1012
l 1012 1013
l 1013 1014
l 1014 1015
l 1014 1016
l 1016 1017
l 1017 1018
l 1017 1019
l 1019 1020
l 426 1020
l 1021 1022
l 1021 1023
l 1023 1024
l 1024 1025
l 1025 1026
l 1025 1027
l 1027 1028
l 1028 1029
l 1028 1030
l 1030 1031
l 1022 1031
l 41 360
l 337 1032
l 65 1033
l 1033 1034
l 18 1034
l 18 1035
l 1035 1036
l 55 1036
l 1038 1037
l 19 1038
l 39 1039
l 371 1040
