# Blender 5.0.1
# www.blender.org
mtllib network.mtl
o network
v 911.870789 0.000000 204.433853
v 1321.509277 0.000008 362.512665
v 1341.015869 0.000008 240.841400
v 1375.846313 0.000015 294.076904
v 1358.824951 0.000008 338.281128
v 1368.808960 0.000000 328.713898
v 1248.594482 0.000000 267.411011
v 1256.280640 -0.000008 263.618500
v 1333.888672 0.000000 321.375244
v 1214.490234 0.000008 422.588684
v 1185.675415 0.000008 429.212891
v 1146.015503 0.000000 428.714111
v 1108.692505 0.000000 411.158875
v 1078.113892 0.000015 382.629517
v 1050.674072 0.000000 345.360016
v 1039.397827 0.000000 319.132446
v 1035.552979 0.000000 299.843506
v 1038.435669 0.000000 288.856445
v 1043.437378 0.000000 278.800018
v 1089.902954 0.000000 247.694565
v 1143.532227 -0.000008 192.439240
v 1160.408081 0.000023 159.975433
v 1181.214600 0.000015 101.278488
v 1195.629517 0.000008 79.746101
v 1209.001709 0.000015 68.735458
v 1266.564209 -0.000008 49.906708
v 1416.718872 0.000015 50.980453
v 1450.772461 0.000000 60.647797
v 1470.385010 0.000000 73.437683
v 1523.087769 0.000000 119.161407
v 1561.025757 0.000000 129.665527
v 1710.341187 0.000000 110.183365
v 1749.622437 0.000000 116.204803
v 1776.945801 0.000015 130.502014
v 1792.010742 0.000015 151.088959
v 1797.064819 0.000015 176.512436
v 1791.041260 0.000015 193.307510
v 1776.607544 0.000000 203.441086
v 1754.068359 0.000015 210.677429
v 1724.265625 0.000000 215.186554
v 1337.296631 -0.000008 277.142731
v 1645.722656 0.000015 218.006882
v 1610.810303 0.000000 210.913788
v 1578.322510 0.000000 196.288025
v 1546.748901 0.000000 172.080719
v 1514.530273 0.000000 135.757751
v 1438.556274 0.000015 70.151688
v 1412.697144 0.000015 63.031693
v 1226.335938 0.000000 68.212280
v 1211.352905 0.000008 75.064957
v 1199.781372 -0.000008 84.342735
v 1165.828247 0.000000 163.011536
v 1149.190796 0.000023 196.571533
v 1095.103638 0.000000 252.272369
v 1069.072876 0.000008 275.765015
v 1060.985840 0.000015 286.443634
v 1058.249268 0.000015 296.608521
v 1061.461792 0.000000 308.739349
v 1067.743286 0.000015 321.836792
v 1076.475098 -0.000015 329.696228
v 1090.374146 0.000000 333.382294
v 1142.831055 -0.000008 327.118134
v 1158.644043 0.000000 322.023315
v 1002.467468 0.000000 298.483826
v 980.448792 0.000000 284.555969
v 794.297363 0.000000 202.525055
v 768.682373 0.000000 201.301239
v 497.655090 0.000008 282.716492
v 488.667664 0.000000 295.616028
v 487.082916 0.000015 306.656464
v 489.407166 0.000008 313.916077
v 494.461090 0.000000 321.238861
v 503.517151 -0.000008 324.178162
v 523.824036 0.000000 323.678375
v 660.701111 0.000008 285.883942
v 693.636108 0.000000 278.222412
v 713.259277 0.000000 278.591461
v 724.215576 0.000000 285.834229
v 728.770813 0.000000 299.695221
v 729.341492 0.000008 316.505676
v 752.896301 0.000000 411.676331
v 742.935364 0.000008 408.027985
v 734.978943 0.000000 401.896362
v 729.652832 0.000000 395.134888
v 724.616394 0.000008 371.064178
v 765.282166 0.000008 412.158508
v 818.080017 0.000000 414.387634
v 833.387390 -0.000008 429.901062
v 848.601868 0.000015 455.935974
v 852.872864 -0.000008 467.660614
v 853.617798 0.000008 476.754639
v 783.693420 0.000000 407.474030
v 845.981445 0.000008 502.152008
v 792.200867 -0.000008 540.373108
v 804.800964 0.000000 534.511047
v 699.630981 0.000008 436.715668
v 705.039795 0.000000 464.520630
v 712.313293 0.000000 481.680298
v 711.651733 -0.000008 298.394867
v 709.021606 0.000000 291.475098
v 703.417786 0.000000 289.434509
v 695.330078 0.000008 289.342804
v 557.545898 0.000000 326.947510
v 522.821594 -0.000008 332.604919
v 501.677948 0.000008 333.371490
v 486.657135 0.000000 328.010956
v 478.226227 0.000000 319.169769
v 473.621094 0.000000 307.987183
v 473.278442 0.000000 297.144653
v 478.010620 0.000000 285.328979
v 494.459045 0.000000 268.928162
v 770.093994 0.000008 187.451782
v 792.755920 0.000015 190.589523
v 901.316895 0.000008 249.018692
v 956.410217 0.000008 268.914154
v 981.402283 0.000008 274.831482
v 1018.620178 0.000000 279.348450
v 453.662628 0.000000 285.074921
v 435.805573 0.000000 279.200043
v 418.513794 0.000008 270.260986
v 401.126709 0.000000 253.458893
v 392.706543 0.000008 231.694611
v 391.011963 0.000008 205.753296
v 392.610046 0.000000 177.398880
v 386.556091 0.000000 129.871155
v 350.355835 0.000008 63.909637
v 287.815979 0.000008 32.414612
v 138.053589 0.000000 -25.722885
v 60.003418 -0.000004 -25.109848
v 19.098022 0.000000 -33.227570
v -59.089050 0.000000 -60.570984
v -88.654602 0.000000 -68.094055
v -116.399170 0.000000 -80.232605
v -138.137207 0.000004 -100.725403
v -151.450073 -0.000002 -130.089417
v -154.210938 0.000002 -161.667908
v -141.459229 0.000000 -192.317352
v -115.090820 0.000006 -213.564331
v -84.439880 -0.000002 -227.340149
v -49.056091 -0.000002 -233.433563
v -17.812378 0.000000 -234.318115
v 68.752930 -0.000001 -211.106812
v 131.015625 -0.000001 -208.529877
v 156.597290 0.000001 -208.945343
v 174.887268 0.000001 -211.393982
v 182.956726 0.000000 -215.845276
v 184.897644 0.000000 -222.985779
v 182.199890 0.000001 -228.480774
v 171.897827 0.000000 -235.241455
v -6.710266 -0.000000 -296.066833
v -80.416931 0.000001 -307.297791
v -136.861572 0.000000 -318.431519
v -142.654663 0.000000 -325.996521
v -145.467651 0.000000 -334.774597
v -131.976562 0.000000 -366.290649
v -139.224121 0.000000 -359.499634
v -143.236206 0.000000 -352.256348
v -116.194214 0.000000 -377.442749
v -80.492188 0.000001 -375.706177
v -88.715027 0.000000 -380.276917
v -97.064514 0.000001 -381.849792
v -106.103882 0.000001 -381.117920
v 22.659241 0.000000 -297.829285
v 54.985840 0.000001 -283.471558
v 157.091919 0.000000 -252.457031
v 193.018311 0.000000 -232.938110
v 196.439392 0.000001 -224.174133
v 195.307373 0.000001 -213.640289
v 187.517944 0.000000 -204.576324
v 170.468750 0.000000 -199.894897
v 130.895874 0.000000 -198.046417
v 65.467346 0.000001 -201.394226
v -18.945801 0.000000 -227.060455
v -48.787720 0.000000 -226.389282
v -80.383911 0.000000 -221.286163
v -109.173706 0.000000 -208.546387
v -133.121826 0.000000 -189.235352
v -144.745605 0.000000 -162.110535
v -142.754272 -0.000002 -133.070801
v -130.936279 0.000000 -106.145203
v -113.281250 0.000000 -89.580841
v 19.844421 0.000008 -42.688675
v 59.683472 0.000004 -34.021500
v 137.646729 0.000008 -33.615326
v 290.218140 0.000000 23.371078
v 337.276001 0.000008 43.931000
v 356.896729 0.000015 57.283905
v 373.213379 0.000000 77.535912
v 394.915466 -0.000008 127.474930
v 400.338440 0.000000 150.980789
v 401.064514 0.000000 230.280823
v 409.092133 0.000000 248.328033
v 423.135315 -0.000008 259.380920
v 438.732147 0.000015 267.282379
v 455.218018 0.000000 272.277100
v 475.072205 0.000008 271.253113
v 1288.593994 0.000000 367.370026
v 1275.628174 0.000015 390.523773
v 1204.226196 0.000000 295.070740
v 1211.157227 0.000008 291.643463
v 1288.721680 0.000015 349.443298
v 1254.016357 0.000008 296.082733
v 383.424194 0.000015 296.660889
v 243.175964 0.000000 265.274841
v 91.830505 0.000000 185.255463
v -377.957886 0.000000 4.330231
v -388.368042 0.000000 1.995468
v -397.646484 0.000000 3.424957
v -404.906738 0.000008 7.862366
v -410.013428 0.000000 15.031906
v -410.418701 -0.000008 24.599060
v -406.655029 0.000008 37.628906
v -392.055908 0.000000 55.533508
v -298.021484 0.000000 106.808861
v -257.558716 0.000000 118.085098
v -228.755005 0.000008 129.982758
v -209.580444 0.000000 147.127243
v -132.404663 0.000000 273.265350
v -129.598267 0.000004 292.551239
v -130.259644 0.000008 310.027557
v -136.331787 0.000000 326.690979
v -169.529297 0.000004 357.598572
v -202.685547 -0.000004 393.950317
v -222.754883 0.000004 412.793365
v -245.837891 0.000004 430.003387
v -327.545654 0.000000 456.859283
v -516.328247 0.000000 481.650696
v -751.456787 0.000001 479.778595
v -980.355469 0.000000 521.527893
v -931.644775 0.000001 599.858276
v -943.856689 0.000000 597.796143
v -956.547729 0.000000 484.105347
v -964.707397 -0.000000 489.599670
v -782.697754 0.000000 488.942444
v -844.770752 -0.000000 538.764343
v -923.114136 0.000000 475.951752
v -517.336426 0.000000 475.970490
v -281.228394 0.000000 439.132080
v -251.944214 0.000000 424.747955
v -175.134644 -0.000004 352.703735
v -142.587524 0.000008 322.311523
v -137.261108 0.000008 308.760162
v -137.656250 -0.000004 275.127655
v -196.748779 0.000000 168.641769
v -230.619629 0.000008 133.821442
v -258.991455 0.000000 122.119621
v -395.109131 0.000015 58.207352
v -411.307373 0.000008 38.981934
v -415.870361 -0.000008 23.326233
v -414.941162 0.000000 11.324142
v -410.116943 0.000000 4.059937
v -402.001465 0.000000 -1.020920
v -390.037109 0.000008 -4.126846
v -377.326416 0.000008 -3.505890
v -364.839966 -0.000008 3.256348
v -328.043945 0.000015 33.440491
v -219.737427 0.000000 95.534470
v 93.169617 0.000000 177.370285
v 125.574219 0.000008 190.383881
v 248.981567 0.000008 254.510468
v 340.421204 0.000008 284.536316
v -450.371582 0.000000 -44.591003
v -540.685669 0.000008 -120.483521
v -555.651367 0.000000 -128.801331
v -567.502441 0.000008 -131.536926
v -575.588623 0.000008 -130.669830
v -580.412598 0.000008 -127.901642
v -583.134644 -0.000008 -122.981659
v -582.569092 -0.000008 -115.797485
v -569.256836 0.000008 -95.647614
v -550.243164 0.000008 -75.677399
v -523.945801 0.000008 -52.418854
v -476.804565 0.000000 -3.163696
v -370.217896 0.000004 139.019623
v -345.928345 0.000000 159.643677
v -285.940186 0.000008 200.812302
v -276.635620 0.000008 213.278107
v -272.053955 0.000000 228.334946
v -275.119873 0.000000 243.420425
v -283.235596 0.000004 252.199280
v -297.127563 0.000000 255.597168
v -317.857300 0.000000 253.645874
v -345.806763 0.000004 243.376907
v -448.196655 0.000000 156.394073
v -494.421875 0.000008 135.205261
v -559.949219 0.000000 114.882050
v -733.202026 -0.000004 86.497665
v -814.777588 0.000000 87.265717
v -886.372803 0.000000 110.142715
v -1010.172119 0.000000 99.695541
v -970.298096 0.000000 153.579819
v -979.993652 0.000000 151.200531
v -1008.293457 0.000004 118.299217
v -985.341431 -0.000004 62.456680
v -994.827393 0.000004 68.240341
v -972.114990 0.000000 59.114685
v -935.824463 0.000004 147.676071
v -953.542725 0.000000 153.376022
v -779.612793 0.000000 64.739716
v -654.907959 0.000004 82.815048
v -466.047607 0.000004 132.813019
v -343.541260 0.000008 230.053436
v -319.026489 0.000004 240.138565
v -301.225952 0.000004 241.235489
v -291.841064 0.000000 236.629669
v -288.508179 -0.000004 227.549454
v -290.702026 0.000000 216.391617
v -297.804688 0.000004 204.264236
v -351.580322 0.000004 164.097809
v -376.169312 0.000004 140.651627
v -482.044556 0.000008 -1.316681
v -574.147583 0.000000 -93.263916
v -588.594971 0.000008 -114.972961
v -588.768311 0.000008 -123.910461
v -584.976074 0.000008 -131.586975
v -578.547485 -0.000008 -135.131134
v -568.240601 0.000008 -136.502106
v -554.689819 0.000000 -133.815460
v -537.782593 -0.000008 -124.699829
v -446.826416 0.000000 -50.190964
v 1334.705811 0.000015 332.575195
v 1334.280884 -0.000008 337.043274
v 1333.418701 0.000008 341.439026
v 1332.117310 0.000008 345.745209
v 1330.391602 0.000000 349.905212
v 1328.251831 0.000000 353.895020
v 1325.735107 -0.000008 357.651642
v 1322.916504 0.000000 361.067963
v 1317.763428 0.000015 233.183151
v 1322.234741 0.000000 233.638870
v 1326.640869 0.000008 234.521118
v 1330.956665 0.000008 235.826538
v 1335.120728 0.000000 237.538330
v 1346.356689 0.000008 245.012985
v 1349.759399 0.000008 248.217529
v 1353.527832 0.000000 252.564407
v 1359.854004 0.000000 262.270142
v 1373.513794 0.000000 286.627319
v 1374.637451 0.000000 289.498230
v 1376.598877 0.000000 300.844147
v 1308.833740 0.000008 233.571686
v 1313.290161 -0.000008 233.159119
v 1300.156250 -0.000015 235.711304
v 1304.449585 -0.000008 234.422333
v 1295.973511 0.000008 237.445038
v 1367.473511 0.000008 330.558075
v 1365.847290 0.000000 332.461517
v 1363.353149 -0.000008 334.807587
v 1372.128662 0.000000 322.827271
v 1375.192139 0.000000 314.324707
v 1373.864502 -0.000008 318.657318
v 1376.563965 0.000000 305.376190
v 1376.093018 0.000000 309.890320
v 1262.675171 0.000000 261.537659
v 1267.068604 0.000008 260.677795
v 1271.537842 0.000000 260.252197
v 1334.696045 0.000000 328.087830
v 1331.515503 0.000008 313.966309
v 1332.649170 0.000000 316.827271
v 1317.890137 0.000008 289.575073
v 1307.816772 0.000000 275.501221
v 1311.581177 0.000000 279.852234
v 1300.910767 0.000008 269.426544
v 1304.413818 0.000000 272.296448
v 1293.253052 0.000008 264.746704
v 1297.192139 0.000000 266.906769
v 1284.869995 0.000008 261.632629
v 1289.142700 0.000000 262.981384
v 1276.020020 0.000008 260.267334
v 1280.487183 0.000000 260.727264
v 1231.280151 0.000015 415.668030
v 1193.876953 0.000008 427.933044
v 1166.367554 0.000000 430.368225
v 1156.115234 0.000000 430.121460
v 1136.233765 0.000015 425.729919
v 1126.726562 0.000000 421.562195
v 1117.487671 0.000008 416.699768
v 1100.490112 0.000008 404.812469
v 1085.271729 0.000008 390.487854
v 1037.641968 0.000000 313.486298
v 1035.813477 0.000008 303.851868
v 1035.832031 0.000008 296.587097
v 1036.503174 -0.000008 293.866333
v 1097.541260 0.000015 241.304016
v 1137.816772 0.000015 199.911102
v 1148.516235 -0.000008 184.498779
v 1178.123291 0.000000 108.166481
v 1184.638916 0.000000 95.071182
v 1192.019653 -0.000008 84.210609
v 1199.042480 0.000000 76.253845
v 1202.327759 0.000015 73.463089
v 1219.977417 -0.000008 62.940887
v 1236.996460 0.000000 56.706253
v 1308.985718 0.000000 44.841339
v 1344.550537 0.000000 45.483612
v 1406.372559 0.000031 49.703217
v 1426.302124 0.000000 52.884064
v 1443.522949 0.000000 57.872726
v 1456.642212 0.000000 63.595459
v 1461.523682 0.000000 66.686646
v 1514.036255 -0.000015 113.129745
v 1532.523193 0.000015 123.410004
v 1542.182373 0.000000 126.308548
v 1551.784302 0.000000 128.399414
v 1569.761597 0.000015 129.937363
v 1587.160400 0.000000 128.548309
v 1696.911377 0.000031 111.176697
v 1721.829102 0.000000 110.525146
v 1731.860229 0.000000 111.870346
v 1741.086304 0.000015 113.783768
v 1757.375854 0.000000 119.207062
v 1771.128052 0.000015 126.385818
v 1781.716919 0.000000 135.097382
v 1785.691895 0.000015 140.072647
v 1789.147583 0.000000 145.357742
v 1794.139160 0.000000 157.386002
v 1796.736084 0.000000 170.572906
v 1796.447998 0.000015 181.551987
v 1795.118286 -0.000015 185.901169
v 1793.334351 0.000000 189.824722
v 1788.115112 0.000000 196.265106
v 1784.693726 0.000015 198.844193
v 1780.899292 0.000000 201.224564
v 1771.681152 0.000000 205.469299
v 1760.439575 0.000000 209.105209
v 1707.790283 0.000000 216.486115
v 1295.026489 0.000000 303.840942
v 1669.400146 0.000000 218.417633
v 1653.710938 0.000000 218.518555
v 1619.498047 0.000000 213.327911
v 1602.448975 0.000015 207.917282
v 1586.299072 0.000000 200.646774
v 1570.392700 -0.000015 191.207993
v 1554.630249 0.000015 179.261520
v 1462.466919 0.000000 86.248810
v 1452.458252 0.000000 78.431580
v 1443.469360 0.000015 72.601151
v 1433.027222 0.000015 68.081924
v 1383.932983 0.000000 58.394501
v 1364.064331 0.000000 55.760513
v 1326.975464 0.000000 52.597946
v 1310.268921 0.000000 52.334686
v 1293.161255 0.000015 53.529556
v 1249.412109 0.000008 60.983475
v 1205.468384 0.000000 78.957870
v 1202.698975 0.000000 81.280396
v 1196.620972 0.000008 88.438004
v 1190.026855 0.000015 98.643982
v 1184.042114 -0.000015 111.017593
v 1154.126953 0.000015 188.347351
v 1143.414185 0.000000 204.381805
v 1065.674561 0.000015 279.188782
v 1063.631714 0.000000 281.807556
v 1062.184326 0.000008 284.127991
v 1059.119019 0.000015 291.344116
v 1058.477783 0.000000 293.914398
v 1058.580688 0.000000 299.466949
v 1059.328735 -0.000008 302.452759
v 1065.979736 0.000015 318.870972
v 1069.675903 0.000000 324.280090
v 1071.751587 0.000000 326.327271
v 1073.979614 -0.000008 328.135284
v 1079.337646 0.000000 330.958069
v 1082.525146 0.000015 331.985718
v 1086.096191 -0.000008 332.823456
v 1095.606445 0.000000 333.573853
v 1107.896118 0.000000 333.151855
v 1121.685181 0.000008 331.487183
v 1154.058594 0.000000 323.553009
v 997.070251 0.000000 294.408142
v 986.141968 0.000000 287.504059
v 974.494080 0.000000 282.030914
v 892.961060 0.000000 253.001556
v 809.689575 0.000008 207.498993
v 799.670166 0.000000 203.754395
v 788.394958 0.000000 201.748734
v 746.165771 0.000015 204.081665
v 728.367981 -0.000008 208.009918
v 490.472473 0.000000 292.368347
v 487.630310 0.000000 298.666443
v 487.166718 0.000008 301.543976
v 487.007263 0.000000 304.245667
v 487.412170 0.000008 308.686829
v 487.932343 -0.000008 310.453766
v 491.634430 0.000008 317.784149
v 492.957275 0.000008 319.665527
v 496.209656 0.000015 322.366760
v 498.194153 0.000008 323.158630
v 500.518372 -0.000008 323.757874
v 507.448547 0.000000 324.381775
v 567.748962 0.000008 315.611633
v 699.721863 0.000000 277.609955
v 704.794800 0.000000 277.556305
v 709.290955 0.000008 277.866516
v 716.614380 0.000008 279.829956
v 719.504883 0.000000 281.470215
v 722.068054 0.000008 283.427307
v 725.836548 -0.000008 288.822418
v 727.061829 0.000000 292.238586
v 728.043884 0.000008 295.879852
v 729.190979 0.000000 303.699524
v 745.232666 0.000008 409.189545
v 750.161072 0.000000 411.024261
v 740.768372 0.000000 406.641663
v 730.814026 0.000008 397.056732
v 732.072632 0.000000 398.736206
v 726.776184 -0.000008 387.675598
v 728.604309 0.000008 392.874817
v 724.702881 0.000008 375.037994
v 725.453369 -0.000008 381.771729
v 755.915894 0.000000 412.068726
v 762.307251 0.000008 412.304382
v 780.864807 0.000000 541.508179
v 776.314758 0.000000 541.194641
v 794.843811 0.000000 406.712830
v 799.315918 -0.000008 407.167816
v 803.719482 -0.000008 408.052490
v 808.030273 0.000008 409.363068
v 812.188110 0.000000 411.080933
v 823.431396 0.000000 418.548462
v 826.856934 -0.000008 421.730347
v 830.665649 -0.000008 426.036987
v 850.615295 0.000008 460.136108
v 851.712097 0.000000 463.033936
v 853.203247 0.000000 469.922607
v 790.368042 0.000000 406.691376
v 767.932983 0.000008 411.770844
v 844.662598 0.000000 503.983154
v 843.064087 0.000000 505.884155
v 840.647827 0.000008 508.261597
v 849.239929 0.000000 496.326355
v 852.209351 0.000000 487.917847
v 850.925964 0.000000 492.206116
v 853.078674 0.000008 483.514923
v 771.846008 0.000000 540.430786
v 767.491577 0.000000 539.211792
v 763.320984 0.000008 537.545105
v 759.355774 0.000000 535.440735
v 755.632385 0.000000 532.945679
v 752.122925 0.000000 530.093018
v 748.705261 0.000000 526.913269
v 744.879578 0.000000 522.810547
v 699.900635 0.000015 381.671844
v 698.169067 0.000008 404.746307
v 698.196350 -0.000008 416.874207
v 789.956421 0.000008 540.809082
v 785.422668 0.000000 541.377197
v 794.447144 0.000000 539.772949
v 796.854065 0.000008 538.923401
v 799.965698 0.000000 537.440308
v 710.190491 -0.000008 477.877045
v 706.657715 0.000000 469.645660
v 714.835693 0.000000 485.415100
v 711.185974 0.000008 320.864441
v 711.862183 0.000008 301.966583
v 711.231750 0.000000 295.835175
v 710.648376 0.000000 294.020935
v 709.933167 -0.000008 292.596130
v 707.850891 0.000008 290.687927
v 706.486206 0.000000 290.142578
v 705.008057 0.000008 289.730103
v 701.688965 0.000000 289.273193
v 685.152344 0.000000 290.447266
v 675.691162 0.000000 292.344849
v 506.223846 0.000000 333.701569
v 497.473694 0.000000 332.497986
v 493.540009 0.000015 331.224274
v 489.873810 0.000008 329.723358
v 484.039093 0.000008 326.050629
v 481.864807 0.000000 323.902649
v 479.936432 0.000008 321.622040
v 476.770569 0.000008 316.499451
v 474.439178 0.000008 310.812286
v 473.145081 0.000008 305.238464
v 472.942505 0.000000 302.541260
v 472.958435 0.000000 299.853088
v 473.991089 -0.000008 294.400146
v 475.019196 0.000000 291.595795
v 550.748169 0.000000 247.272079
v 739.826904 0.000000 189.752441
v 744.380005 0.000000 189.037567
v 765.149658 0.000000 187.365112
v 787.487793 0.000008 189.514740
v 797.126404 0.000000 191.895218
v 1029.090210 0.000008 279.583099
v 422.956970 0.000015 273.085022
v 413.928894 0.000000 266.711121
v 404.907043 0.000000 258.186462
v 398.216553 0.000000 248.381958
v 395.969299 0.000000 243.035812
v 394.128784 -0.000008 237.491974
v 391.791077 0.000008 225.570251
v 392.477905 0.000008 159.123749
v 390.998230 0.000008 147.562210
v 379.496216 0.000000 110.483536
v 368.070496 0.000008 87.353569
v 361.385742 0.000008 77.218163
v 354.100159 0.000000 67.951721
v 346.535400 0.000000 60.502533
v 338.574036 0.000008 54.848572
v 329.332642 0.000000 49.876831
v 178.360107 0.000000 -15.337646
v 145.936890 0.000004 -24.411758
v 130.560547 0.000000 -26.359253
v 67.723083 0.000000 -24.363098
v -95.751099 0.000000 -70.551971
v -109.812744 0.000004 -76.553650
v -122.443726 0.000000 -84.597137
v -128.065552 0.000000 -89.492889
v -133.354004 0.000000 -94.802856
v -142.238647 0.000004 -107.459015
v -148.926514 0.000004 -122.373230
v -153.185547 0.000004 -137.901184
v -154.269653 0.000000 -145.781708
v -154.736572 0.000004 -153.705261
v -152.373047 0.000000 -169.661011
v -149.527222 0.000000 -177.605438
v -145.964111 0.000004 -185.281647
v -135.750000 0.000002 -198.470520
v -129.179565 0.000000 -203.945251
v -107.789917 0.000004 -217.589508
v -92.582336 0.000002 -224.524719
v -75.782776 0.000002 -229.469055
v -25.206970 0.000000 -234.673157
v -10.742615 0.000000 -233.334442
v -3.880798 0.000002 -231.886780
v 61.380371 0.000002 -212.476440
v 76.273193 0.000001 -210.346771
v 171.151123 0.000000 -210.625000
v 177.711243 -0.000000 -212.299622
v 179.852783 0.000000 -213.322388
v 181.595947 0.000000 -214.472046
v 183.867615 0.000001 -217.514832
v 184.440796 0.000000 -219.380371
v 184.794312 0.000000 -221.260498
v 184.687195 0.000000 -224.470276
v 184.210815 0.000001 -225.790070
v 183.451172 0.000000 -227.085358
v 180.289185 0.000000 -230.038849
v 175.103088 0.000000 -233.462341
v 159.285278 0.000000 -240.735840
v -30.703491 0.000000 -301.669769
v -110.302246 0.000000 -307.218781
v -114.798950 0.000000 -307.758606
v -119.208008 0.000000 -308.742828
v -131.482178 0.000000 -314.244385
v -135.137817 -0.000000 -316.906616
v -123.479614 0.000000 -310.159668
v -127.589111 -0.000000 -312.002350
v -143.629639 0.000000 -328.123291
v -145.034180 -0.000000 -332.540833
v -137.897339 0.000000 -361.051392
v -136.388916 0.000000 -362.556763
v -142.398804 0.000000 -354.195312
v -140.390625 0.000001 -357.823486
v -144.950684 -0.000000 -345.900574
v -143.916626 0.000000 -350.205383
v -145.651978 0.000000 -337.014587
v -145.542358 0.000000 -341.486694
v -138.478760 0.000000 -320.151245
v -141.423584 0.000000 -323.965576
v -86.791931 -0.000000 -379.493408
v -82.872314 0.000001 -377.340942
v -94.900757 0.000000 -381.658569
v -90.718384 -0.000000 -380.870728
v -103.835815 0.000000 -381.470093
v -99.289124 0.000000 -381.851868
v -113.149658 0.000000 -379.014160
v -110.645752 0.000000 -379.962280
v -21.377686 0.000001 -324.084229
v -12.720398 0.000000 -317.886536
v 173.180298 0.000000 -245.928833
v 182.318848 0.000000 -240.958252
v 190.149170 0.000000 -235.489136
v 194.750793 -0.000000 -230.650452
v 195.653564 0.000000 -228.538727
v 196.161560 0.000000 -226.434875
v 196.364502 -0.000000 -218.993988
v 196.022827 0.000000 -216.279938
v 194.084961 -0.000000 -211.133911
v 192.433716 0.000000 -208.750977
v 190.345703 -0.000000 -206.520874
v 183.716125 0.000001 -203.019104
v 163.522705 0.000000 -199.084839
v 73.533020 0.000000 -200.632019
v 57.890503 0.000001 -202.818939
v -5.345032 0.000000 -224.324036
v -12.048889 0.000000 -225.952698
v -26.129822 0.000002 -227.473816
v -72.594116 0.000000 -223.147186
v -87.914368 -0.000002 -218.724152
v -102.311523 0.000004 -212.283051
v -122.075684 -0.000002 -199.701752
v -127.994751 0.000000 -194.736694
v -137.171265 0.000000 -183.023193
v -140.394409 0.000000 -176.274292
v -143.003296 0.000004 -169.258057
v -145.346680 0.000004 -154.876099
v -145.074463 0.000002 -147.595551
v -144.234497 0.000000 -140.314209
v -140.488525 0.000002 -125.894470
v -134.446045 0.000004 -112.116028
v -127.059448 0.000000 -101.205078
v -122.884033 0.000000 -97.009247
v -118.383179 0.000000 -93.172546
v -107.363892 0.000000 -86.252899
v -94.145935 0.000000 -80.208923
v 67.072021 0.000000 -33.163681
v 129.756836 0.000000 -34.281860
v 163.617981 -0.000004 -28.378845
v 180.437500 0.000000 -23.331314
v 332.289917 -0.000008 41.401642
v 352.184448 0.000008 53.367188
v 361.319092 0.000000 61.846909
v 369.507568 0.000000 72.137314
v 382.350586 -0.000008 94.697594
v 399.400879 0.000000 145.093369
v 400.895996 0.000000 157.101593
v 400.262329 0.000008 224.731934
v 402.460510 0.000000 235.354187
v 404.313660 -0.000008 240.051575
v 406.495178 0.000000 244.428024
v 412.211304 0.000008 251.608139
v 415.712097 -0.000008 254.425476
v 434.636261 -0.000008 265.573090
v 490.116882 0.000000 269.133484
v 1289.508057 -0.000008 360.672729
v 1289.035522 0.000000 365.155609
v 1287.946289 0.000008 369.555023
v 1286.236572 0.000000 373.850220
v 1284.052734 -0.000008 377.984314
v 1276.257690 0.000000 389.402222
v 1217.564209 0.000008 289.549683
v 1221.961792 0.000000 288.685425
v 1226.429443 0.000008 288.261658
v 1289.515503 -0.000008 356.169098
v 1286.393555 0.000008 341.989441
v 1287.504761 0.000008 344.872833
v 1272.889038 0.000008 317.477173
v 1262.812988 0.000000 303.405762
v 1266.589600 0.000008 307.744446
v 1259.388062 -0.000008 300.223328
v 1248.135254 0.000008 292.765472
v 1239.742676 0.000008 289.661072
v 1244.012329 0.000008 291.012512
v 1230.906006 0.000000 288.282349
v 1235.366821 0.000000 288.748627
v 417.427887 0.000000 293.494598
v 351.826904 0.000000 296.669586
v 328.404297 0.000000 294.062012
v 303.932434 0.000000 288.807068
v 278.793091 0.000000 280.719208
v 99.841248 0.000008 188.193695
v -209.593384 0.000008 106.679230
v -230.239380 0.000000 99.510590
v -282.664062 0.000008 73.325859
v -303.652466 0.000015 60.419159
v -363.284180 0.000000 14.030090
v -385.764526 0.000000 2.310684
v -390.843750 -0.000008 2.026367
v -393.214111 0.000015 2.320618
v -395.495850 0.000000 2.781494
v -399.626099 -0.000008 4.292816
v -401.476562 0.000000 5.336121
v -403.242432 0.000000 6.511749
v -406.438477 0.000008 9.435242
v -407.846802 -0.000008 11.177612
v -409.089844 0.000008 13.035202
v -410.502563 0.000000 17.204254
v -410.665283 0.000008 19.518463
v -410.635742 0.000008 21.959320
v -409.307129 0.000000 30.631134
v -408.312988 0.000000 33.964691
v -404.080811 0.000015 41.727402
v -396.853027 0.000008 50.751678
v -372.139038 0.000000 70.700836
v -356.671875 0.000000 80.003494
v -249.179565 0.000000 120.809723
v -234.935547 0.000008 126.595634
v -223.339233 0.000000 133.911911
v -179.637451 0.000000 184.595825
v -145.464111 0.000015 240.656631
v -139.037842 0.000000 253.777512
v -131.208984 0.000008 278.633240
v -129.737061 -0.000004 305.700989
v -131.181396 0.000004 314.314606
v -132.438721 0.000000 318.550812
v -134.058838 0.000008 322.701111
v -139.485840 0.000004 330.472107
v -239.553955 0.000000 425.916077
v -252.734863 0.000000 433.815063
v -268.317383 0.000004 440.925293
v -288.978394 0.000000 447.815521
v -527.247437 0.000000 481.723175
v -652.553589 0.000001 472.366241
v -961.134521 0.000000 486.798401
v -959.068359 0.000000 485.451202
v -979.297485 0.000001 514.682129
v -980.059082 0.000000 529.293274
v -980.356445 0.000000 526.265808
v -936.324463 0.000001 599.637085
v -939.367065 0.000000 599.159668
v -941.716553 0.000000 598.538879
v -949.925537 0.000000 594.887695
v -970.268311 0.000001 571.581787
v -971.993652 0.000000 566.401062
v -966.102905 0.000000 579.560303
v -968.373291 0.000000 575.674622
v -960.522949 -0.000001 586.614624
v -963.482056 0.000000 583.213989
v -953.713867 0.000001 592.481689
v -957.262573 0.000000 589.710815
v -969.325439 0.000000 494.380249
v -974.355225 0.000000 501.770721
v -971.996582 0.000000 497.923370
v -978.036133 0.000000 510.204376
v -976.375244 0.000000 505.874939
v -859.933350 0.000001 572.866516
v -862.142334 0.000000 576.803772
v -864.725952 0.000000 580.506470
v -890.766113 0.000000 597.138977
v -896.275635 0.000001 598.018494
v -882.222900 0.000000 594.291138
v -886.409302 0.000000 595.921631
v -874.435547 0.000000 589.837341
v -878.225952 0.000001 592.260742
v -867.651855 0.000000 583.929810
v -870.904175 0.000000 587.054932
v -762.890381 0.000000 482.126282
v -770.865723 0.000000 484.441437
v -791.606689 0.000001 493.209991
v -814.698975 -0.000001 507.316101
v -823.660645 0.000000 514.331238
v -831.282715 0.000001 521.622009
v -837.620972 0.000000 528.758301
v -846.441162 0.000000 541.700867
v -916.337646 0.000001 599.378479
v -946.014160 0.000000 480.160858
v -937.969238 0.000000 478.113831
v -693.166504 0.000000 464.169617
v -528.170532 0.000002 476.029938
v -316.367310 -0.000004 448.358276
v -265.051880 0.000004 432.191254
v -234.736084 0.000004 412.266571
v -224.236328 0.000004 403.379272
v -195.074097 0.000004 375.233124
v -145.529297 0.000004 325.653809
v -140.551758 0.000008 319.008606
v -139.178223 0.000004 315.712372
v -135.725830 0.000008 296.735168
v -135.672363 0.000000 288.585144
v -136.626343 0.000004 280.164398
v -143.696289 0.000008 255.575104
v -149.691162 -0.000008 242.184372
v -174.107056 0.000008 201.009796
v -221.123535 0.000008 141.665344
v -225.553711 0.000008 137.581848
v -236.596680 0.000000 130.527283
v -243.324341 0.000000 127.587189
v -308.054443 0.000000 107.756302
v -358.434692 0.000008 83.980576
v -374.303711 -0.000008 74.134285
v -400.295410 0.000000 53.156372
v -408.361816 0.000000 43.510605
v -413.268799 0.000008 34.754944
v -414.507080 0.000000 30.763245
v -415.353516 0.000008 26.939209
v -416.013672 0.000008 19.981140
v -415.873169 0.000000 16.853119
v -415.531860 0.000008 13.926117
v -414.038452 0.000008 9.154022
v -412.899902 0.000008 7.303467
v -411.603760 0.000000 5.619812
v -408.389038 -0.000008 2.632812
v -406.467529 0.000015 1.311478
v -404.373291 0.000000 0.080429
v -399.262939 0.000008 -1.956818
v -379.559082 0.000000 -3.333084
v -356.945312 0.000008 8.799225
v -300.135620 0.000000 53.852646
v -279.535034 0.000008 66.472321
v -228.474121 0.000000 92.130692
v 101.399780 0.000008 180.163086
v 282.303955 0.000008 268.676392
v 305.777527 -0.000008 276.603210
v 329.072327 0.000015 282.530090
v 351.420654 0.000000 285.577850
v 404.425476 0.000000 284.502747
v 417.530304 0.000008 282.878632
v 451.200928 0.000000 273.985596
v -381.151611 0.000008 -6.504196
v -515.024414 -0.000008 -101.973907
v -552.249756 0.000000 -127.238098
v -558.862549 0.000000 -129.910004
v -564.833374 -0.000008 -131.222534
v -569.847534 0.000000 -131.568146
v -573.873291 -0.000008 -131.084564
v -577.033325 0.000000 -130.128418
v -578.275024 -0.000008 -129.488037
v -579.398926 0.000008 -128.761658
v -581.294434 0.000008 -126.865112
v -582.062256 0.000000 -125.691681
v -582.705200 0.000008 -124.412842
v -583.280762 -0.000008 -121.350647
v -583.206787 0.000000 -119.573761
v -582.979980 0.000000 -117.719177
v -581.922607 0.000000 -113.801208
v -580.012939 0.000000 -109.639343
v -576.898682 0.000000 -104.891815
v -375.513428 0.000000 133.116837
v -364.372192 0.000000 144.599030
v -340.225220 0.000000 163.671387
v -289.475220 0.000000 197.530060
v -283.053955 -0.000004 203.933228
v -278.521851 0.000004 210.020645
v -275.032715 0.000000 216.819016
v -273.675171 0.000000 220.569336
v -272.604858 0.000008 224.422104
v -272.200806 0.000000 232.296860
v -272.871094 0.000000 236.253067
v -273.848633 0.000008 240.049515
v -276.737305 -0.000004 246.189880
v -278.629761 0.000004 248.499115
v -280.756104 0.000004 250.513504
v -286.180420 0.000000 253.480209
v -289.493042 -0.000004 254.447266
v -293.099976 0.000004 255.179657
v -301.702515 -0.000004 255.607864
v -312.045654 0.000000 254.684265
v -331.147461 0.000004 249.884186
v -338.302856 0.000000 247.148834
v -361.984131 0.000008 231.906418
v -432.621948 -0.000004 166.792465
v -666.605103 0.000000 94.302628
v -794.878174 0.000004 85.234375
v -834.339600 0.000004 91.456741
v -871.269775 0.000008 103.584534
v -992.750000 0.000004 66.674118
v -988.023193 0.000000 63.725677
v -1009.358154 0.000000 93.096970
v -1010.074463 0.000000 106.480331
v -973.248779 -0.000004 153.155304
v -975.677368 0.000004 152.597031
v -986.082031 0.000004 148.313614
v -1006.176025 0.000004 124.793900
v -1002.120850 0.000008 132.847717
v -1004.329834 0.000000 128.900513
v -996.657227 -0.000004 140.018021
v -999.565430 0.000004 136.566513
v -989.884521 0.000000 145.921646
v -993.426514 0.000000 143.143921
v -999.803223 0.000000 73.213593
v -996.649414 0.000000 69.858856
v -1004.859741 0.000000 80.629417
v -1002.523926 0.000000 76.804741
v -1008.286377 -0.000004 88.808960
v -1006.781250 0.000000 84.635086
v -1009.609497 0.000000 111.187286
v -982.353760 0.000000 61.414841
v -959.365723 0.000000 57.740128
v -897.665894 0.000000 116.729004
v -931.871338 0.000000 145.239014
v -940.062134 0.000000 149.621246
v -949.025879 0.000000 152.466385
v -958.027100 0.000004 153.818176
v -947.391602 0.000004 57.344650
v -553.052979 0.000000 104.578690
v -445.505615 0.000004 142.014725
v -432.091797 0.000000 150.350082
v -418.400269 0.000000 161.430664
v -366.155396 -0.000004 212.777130
v -336.865845 0.000000 233.676239
v -324.620483 0.000000 238.556976
v -313.945557 0.000000 241.041580
v -304.975952 0.000004 241.513580
v -298.205078 0.000000 240.526062
v -295.733887 0.000008 239.485413
v -293.604248 0.000004 238.207855
v -290.527100 0.000008 234.673645
v -289.562012 0.000000 232.441101
v -288.859619 0.000008 230.058975
v -288.605469 0.000000 224.894714
v -289.047852 0.000000 222.132660
v -289.728638 0.000004 219.301926
v -292.043457 0.000000 213.383575
v -295.561768 0.000004 207.253403
v -300.519165 0.000004 201.381714
v -370.385132 0.000000 146.775269
v -582.295898 0.000000 -102.919617
v -585.681885 0.000000 -108.085022
v -587.868652 0.000008 -112.705872
v -588.997314 0.000008 -117.229919
v -589.142700 0.000008 -119.480713
v -589.087769 0.000000 -121.717926
v -588.116699 0.000008 -126.029785
v -587.216309 0.000000 -128.070618
v -586.167725 0.000000 -129.974854
v -583.615234 -0.000008 -132.795959
v -582.111328 0.000008 -133.708771
v -580.457397 0.000000 -134.472900
v -576.297241 0.000000 -135.673462
v -571.114014 0.000008 -136.423706
v -565.118408 0.000000 -136.263916
v -558.345947 0.000008 -134.998840
v -550.774902 0.000008 -132.073883
v -511.658936 0.000008 -106.472351
v -430.662354 0.000008 -38.150421
v -916.338989 0.000000 632.424072
v -1030.267090 0.000000 99.690613
v -161.275391 0.000000 -337.015930
v 881.154358 0.000000 476.757935
v 1719.417969 0.000000 213.669708
v 1715.758789 0.000000 211.643127
v 1712.374512 0.000000 208.777496
v 1707.168457 0.000000 198.918167
v 1716.366211 0.000000 218.289017
v 1717.912231 0.000015 223.884796
v 1721.059204 0.000000 237.439392
v 1715.043701 0.000000 220.243103
v 1712.001709 0.000000 217.903015
v 1693.198730 0.000000 217.153534
v 1676.733521 0.000000 217.843109
v 1688.355591 0.000000 215.632278
v 1684.701172 0.000000 213.600739
v 1681.321289 0.000000 210.730865
v 1676.115967 0.000000 200.870850
v 1685.315308 0.000015 220.240143
v 1686.860962 0.000000 225.836258
v 1690.008179 0.000000 239.390503
v 1683.990723 0.000000 222.196121
v 1680.946899 0.000000 219.857971
v 1380.378174 0.000008 249.250580
v 1008.168762 0.000000 288.695984
v 1023.828674 0.000000 289.235962
v 1049.595581 0.000008 286.516418
v 1059.495605 0.000008 282.196442
v 1066.670166 0.000008 268.431274
v 1055.053833 -0.000008 275.991669
v 1752.418457 0.000015 203.627441
v 1226.442749 0.000000 407.068390
l 321 322
l 322 323
l 323 324
l 324 325
l 325 326
l 326 327
l 327 328
l 328 2
l 2 5
l 329 330
l 330 331
l 331 332
l 332 333
l 333 3
l 3 334
l 334 335
l 335 336
l 336 337
l 337 338
l 338 339
l 339 4
l 4 340
l 341 342
l 342 329
l 343 344
l 344 341
l 7 345
l 345 343
l 6 346
l 346 347
l 347 348
l 348 5
l 349 6
l 350 351
l 351 349
l 340 352
l 352 353
l 353 350
l 7 8
l 8 354
l 354 355
l 355 356
l 9 357
l 357 321
l 358 359
l 359 9
l 360 358
l 361 362
l 362 360
l 363 364
l 364 361
l 365 366
l 366 363
l 367 368
l 368 365
l 356 369
l 369 370
l 370 367
l 7 199
l 371 10
l 10 372
l 372 11
l 11 373
l 373 374
l 374 12
l 12 375
l 375 376
l 376 377
l 377 13
l 13 378
l 378 379
l 379 14
l 14 15
l 15 16
l 16 380
l 380 381
l 381 17
l 17 382
l 382 383
l 383 18
l 18 19
l 1037 20
l 20 384
l 384 385
l 385 21
l 21 386
l 386 22
l 22 387
l 387 23
l 23 388
l 388 389
l 389 24
l 24 390
l 390 391
l 391 25
l 25 392
l 392 393
l 393 26
l 26 394
l 394 395
l 395 396
l 396 27
l 27 397
l 397 398
l 398 28
l 28 399
l 399 400
l 400 29
l 29 401
l 401 30
l 30 402
l 402 403
l 403 404
l 404 31
l 31 405
l 405 406
l 406 407
l 407 32
l 32 408
l 408 409
l 409 410
l 410 33
l 33 411
l 411 412
l 412 34
l 34 413
l 413 414
l 414 415
l 415 35
l 35 416
l 416 417
l 417 36
l 36 418
l 418 419
l 419 420
l 420 37
l 37 421
l 421 422
l 422 423
l 423 38
l 38 424
l 424 425
l 425 39
l 39 40
l 40 426
l 426 1021
l 427 739
l 428 1022
l 428 429
l 429 42
l 42 430
l 430 43
l 43 431
l 431 432
l 432 44
l 44 433
l 433 434
l 434 45
l 45 46
l 46 435
l 435 436
l 436 437
l 437 47
l 47 438
l 438 48
l 48 439
l 439 440
l 440 441
l 441 442
l 442 443
l 443 444
l 444 49
l 49 50
l 50 445
l 445 446
l 446 51
l 51 447
l 447 448
l 448 449
l 449 52
l 52 450
l 450 53
l 53 451
l 451 54
l 54 55
l 55 452
l 452 453
l 453 454
l 454 56
l 56 455
l 455 456
l 456 57
l 57 457
l 457 458
l 458 58
l 58 459
l 459 59
l 59 460
l 460 461
l 461 462
l 462 60
l 60 463
l 463 464
l 464 465
l 465 61
l 61 466
l 466 467
l 467 468
l 468 62
l 62 469
l 469 63
l 63 199
l 15 64
l 64 470
l 470 471
l 471 65
l 65 472
l 472 473
l 473 474
l 474 475
l 475 66
l 66 476
l 476 67
l 67 477
l 477 478
l 478 68
l 68 479
l 479 69
l 69 480
l 480 481
l 481 482
l 482 70
l 70 483
l 483 484
l 484 71
l 71 485
l 485 486
l 486 72
l 72 487
l 487 488
l 488 489
l 489 73
l 73 490
l 490 74
l 74 491
l 491 75
l 75 76
l 76 492
l 492 493
l 493 494
l 494 77
l 77 495
l 495 496
l 496 497
l 497 78
l 78 498
l 498 499
l 499 500
l 500 79
l 79 501
l 501 80
l 82 502
l 502 503
l 503 81
l 83 504
l 504 82
l 84 505
l 505 506
l 506 83
l 507 508
l 508 84
l 85 509
l 509 510
l 510 507
l 80 85
l 81 511
l 511 512
l 512 86
l 513 514
l 515 516
l 516 517
l 517 518
l 518 519
l 519 87
l 87 520
l 520 521
l 521 522
l 522 88
l 88 89
l 89 523
l 523 524
l 524 90
l 90 525
l 525 91
l 92 526
l 526 515
l 86 527
l 527 92
l 93 528
l 528 529
l 529 530
l 531 93
l 532 533
l 533 531
l 91 534
l 534 532
l 514 535
l 535 536
l 536 537
l 537 538
l 538 539
l 539 540
l 540 541
l 541 542
l 544 543
l 96 545
l 545 544
l 94 546
l 546 547
l 547 513
l 94 548
l 548 549
l 549 550
l 550 95
l 98 551
l 551 552
l 552 97
l 553 98
l 542 553
l 97 96
l 530 95
l 543 554
l 554 555
l 555 99
l 99 556
l 556 557
l 557 558
l 558 100
l 100 559
l 559 560
l 560 561
l 561 101
l 101 562
l 562 102
l 102 563
l 563 564
l 564 103
l 103 104
l 104 565
l 565 105
l 105 566
l 566 567
l 567 568
l 568 106
l 106 569
l 569 570
l 570 571
l 571 107
l 107 572
l 572 573
l 573 108
l 108 574
l 574 575
l 575 576
l 576 109
l 109 577
l 577 578
l 578 110
l 111 579
l 579 580
l 580 581
l 581 582
l 582 112
l 112 583
l 583 113
l 113 584
l 584 114
l 114 115
l 115 116
l 116 117
l 117 585
l 19 585
l 68 110
l 118 119
l 119 586
l 586 120
l 120 587
l 587 588
l 588 121
l 121 589
l 589 590
l 590 591
l 591 122
l 122 592
l 592 123
l 123 124
l 124 593
l 593 594
l 594 125
l 125 595
l 595 596
l 596 597
l 597 598
l 598 126
l 126 599
l 599 600
l 600 601
l 601 127
l 127 602
l 602 603
l 603 128
l 128 604
l 604 605
l 605 129
l 129 130
l 130 131
l 131 132
l 132 606
l 606 607
l 607 133
l 133 608
l 608 609
l 609 610
l 610 134
l 134 611
l 611 612
l 612 135
l 135 613
l 613 614
l 614 615
l 615 136
l 136 616
l 616 617
l 617 618
l 618 137
l 137 619
l 619 620
l 620 138
l 138 621
l 621 622
l 622 139
l 139 623
l 623 140
l 140 624
l 624 141
l 141 625
l 625 626
l 626 627
l 627 142
l 142 628
l 628 143
l 143 144
l 144 629
l 629 145
l 145 630
l 630 631
l 631 632
l 632 146
l 146 633
l 633 634
l 634 635
l 635 147
l 147 636
l 636 637
l 637 638
l 638 148
l 148 639
l 639 640
l 640 149
l 149 641
l 641 150
l 150 642
l 642 151
l 151 643
l 643 644
l 644 645
l 646 647
l 647 152
l 645 648
l 648 649
l 649 646
l 153 650
l 650 651
l 651 154
l 156 652
l 652 653
l 653 155
l 157 654
l 654 655
l 655 156
l 656 657
l 657 157
l 154 658
l 658 659
l 659 656
l 152 660
l 660 661
l 661 153
l 160 662
l 662 663
l 663 159
l 161 664
l 664 665
l 665 160
l 162 666
l 666 667
l 667 161
l 158 668
l 668 669
l 669 162
l 155 158
l 159 670
l 670 671
l 671 163
l 163 164
l 164 165
l 165 672
l 672 673
l 673 674
l 674 166
l 166 675
l 675 676
l 676 677
l 677 167
l 167 678
l 678 679
l 679 168
l 168 680
l 680 681
l 681 682
l 682 169
l 169 683
l 683 170
l 170 684
l 684 171
l 171 685
l 685 172
l 172 686
l 686 687
l 687 688
l 688 173
l 173 689
l 689 174
l 174 690
l 690 175
l 175 691
l 691 692
l 692 176
l 176 693
l 693 694
l 694 177
l 177 695
l 695 696
l 696 697
l 697 178
l 178 698
l 698 699
l 699 700
l 700 179
l 179 701
l 701 702
l 702 180
l 180 703
l 703 704
l 704 705
l 705 181
l 181 706
l 706 707
l 707 182
l 182 183
l 183 708
l 708 709
l 709 184
l 184 710
l 710 711
l 711 185
l 185 712
l 712 186
l 186 713
l 713 187
l 187 714
l 714 715
l 715 188
l 188 716
l 716 189
l 189 717
l 717 190
l 190 718
l 718 719
l 719 191
l 191 720
l 720 721
l 721 722
l 722 192
l 192 723
l 723 724
l 724 193
l 193 725
l 725 194
l 194 195
l 195 196
l 111 726
l 726 196
l 727 728
l 728 197
l 197 729
l 729 730
l 730 731
l 731 732
l 732 198
l 199 200
l 200 733
l 733 734
l 734 735
l 201 736
l 736 727
l 737 738
l 738 201
l 739 737
l 740 741
l 741 739
l 202 742
l 742 740
l 743 202
l 744 745
l 745 743
l 735 746
l 746 747
l 747 744
l 2 198
l 371 198
l 110 118
l 110 111
l 118 748
l 748 203
l 203 749
l 749 750
l 750 751
l 751 752
l 752 204
l 204 753
l 753 205
l 205 754
l 754 755
l 755 756
l 756 757
l 757 758
l 758 206
l 206 759
l 759 207
l 207 760
l 760 761
l 761 762
l 762 208
l 208 763
l 763 764
l 764 765
l 765 209
l 209 766
l 766 767
l 767 768
l 768 210
l 210 769
l 769 770
l 770 771
l 771 211
l 211 772
l 772 773
l 773 212
l 212 774
l 774 775
l 775 213
l 213 776
l 776 777
l 777 214
l 214 215
l 215 778
l 778 779
l 779 216
l 216 780
l 780 217
l 217 781
l 781 782
l 782 783
l 783 218
l 218 784
l 784 219
l 219 785
l 785 220
l 220 786
l 786 787
l 787 788
l 788 221
l 221 789
l 789 222
l 222 223
l 223 224
l 224 790
l 790 225
l 225 791
l 791 792
l 792 793
l 793 226
l 226 227
l 227 794
l 794 795
l 795 228
l 233 796
l 796 797
l 797 232
l 229 798
l 799 800
l 800 229
l 230 801
l 801 802
l 802 803
l 803 231
l 231 804
l 805 806
l 807 808
l 808 805
l 809 810
l 810 807
l 804 811
l 811 812
l 812 809
l 813 233
l 814 815
l 815 813
l 798 816
l 816 817
l 817 814
l 818 819
l 819 820
l 821 822
l 823 824
l 824 821
l 825 826
l 826 823
l 820 827
l 827 828
l 828 825
l 228 829
l 829 830
l 830 234
l 234 831
l 831 832
l 832 833
l 833 834
l 834 835
l 835 235
l 235 836
l 818 836
l 230 837
l 837 822
l 799 806
l 232 838
l 838 839
l 839 236
l 236 840
l 840 841
l 841 237
l 237 842
l 842 238
l 238 843
l 843 239
l 239 844
l 844 845
l 845 846
l 846 240
l 240 847
l 847 241
l 241 848
l 848 849
l 849 242
l 242 850
l 850 851
l 851 852
l 852 243
l 243 853
l 853 854
l 854 855
l 855 244
l 244 856
l 856 857
l 857 245
l 245 858
l 858 859
l 859 246
l 246 860
l 860 861
l 861 862
l 862 247
l 247 863
l 863 864
l 864 248
l 248 865
l 865 866
l 866 867
l 867 249
l 249 868
l 868 869
l 869 870
l 870 250
l 250 871
l 871 872
l 872 873
l 873 251
l 251 874
l 874 875
l 875 876
l 876 252
l 252 877
l 877 253
l 253 878
l 878 254
l 254 255
l 255 879
l 879 256
l 256 880
l 880 881
l 881 882
l 882 257
l 257 258
l 258 883
l 883 259
l 259 260
l 260 884
l 884 885
l 885 886
l 886 261
l 261 887
l 887 888
l 119 889
l 889 888
l 119 890
l 890 195
l 254 891
l 206 253
l 253 262
l 262 892
l 892 263
l 263 893
l 893 264
l 264 894
l 894 895
l 895 265
l 265 896
l 896 897
l 897 266
l 266 898
l 898 899
l 899 900
l 900 267
l 267 901
l 901 902
l 902 903
l 903 268
l 268 904
l 904 905
l 905 906
l 906 269
l 269 907
l 907 908
l 908 909
l 909 270
l 270 271
l 271 272
l 272 273
l 273 910
l 910 274
l 274 911
l 911 275
l 275 912
l 912 913
l 913 276
l 276 914
l 914 915
l 915 277
l 277 916
l 916 917
l 917 918
l 918 278
l 278 919
l 919 920
l 920 921
l 921 279
l 279 922
l 922 923
l 923 924
l 924 280
l 280 925
l 925 926
l 926 927
l 927 281
l 281 928
l 928 929
l 929 282
l 282 930
l 930 931
l 931 283
l 283 932
l 932 933
l 933 284
l 284 285
l 285 286
l 286 934
l 934 287
l 287 935
l 935 288
l 288 936
l 936 937
l 937 289
l 295 938
l 938 939
l 939 294
l 290 940
l 941 290
l 291 942
l 942 943
l 943 292
l 292 944
l 945 293
l 946 947
l 947 945
l 948 949
l 949 946
l 944 950
l 950 951
l 951 948
l 952 953
l 953 295
l 954 955
l 955 952
l 940 956
l 956 957
l 957 954
l 941 958
l 958 293
l 294 959
l 959 296
l 296 960
l 289 961
l 961 962
l 962 297
l 297 963
l 963 964
l 964 298
l 291 965
l 965 298
l 960 966
l 966 299
l 299 300
l 300 967
l 967 301
l 301 968
l 968 969
l 969 970
l 970 971
l 971 302
l 302 972
l 972 973
l 973 303
l 303 974
l 974 975
l 975 304
l 304 976
l 976 977
l 977 978
l 978 305
l 305 979
l 979 980
l 980 981
l 981 306
l 306 982
l 982 983
l 983 984
l 984 307
l 307 985
l 985 986
l 986 308
l 308 987
l 987 309
l 309 988
l 988 310
l 310 311
l 311 312
l 312 989
l 989 990
l 990 991
l 991 313
l 313 992
l 992 993
l 993 994
l 994 314
l 314 995
l 995 996
l 996 997
l 997 315
l 315 998
l 998 999
l 999 1000
l 1000 316
l 316 1001
l 1001 1002
l 1002 317
l 317 1003
l 1003 1004
l 1004 318
l 318 1005
l 1005 319
l 319 1006
l 1006 320
l 320 1007
l 891 1007
l 837 1008
l 290 1009
l 658 1010
l 91 1011
l 40 1012
l 1012 1013
l 1013 1014
l 1014 1015
l 1014 1016
l 1016 1017
l 1017 1018
l 1017 1019
l 1019 1020
l 426 1020
l 1021 1022
l 1021 1023
l 1023 1024
l 1024 1025
l 1025 1026
l 1025 1027
l 1027 1028
l 1028 1029
l 1028 1030
l 1030 1031
l 1022 1031
l 41 360
l 337 1032
l 65 1033
l 1033 1034
l 18 1034
l 18 1035
l 1035 1036
l 55 1036
l 1038 1037
l 19 1038
l 39 1039
l 371 1040
